<?xml version="1.0" standalone="no"?>
<!DOCTYPE svg PUBLIC "-//W3C//DTD SVG 1.1//EN" "http://www.w3.org/Graphics/SVG/1.1/DTD/svg11.dtd" >
<!--
2013-9-30: Created.
-->
<svg>
<metadata>
Created by iconfont
</metadata>
<defs>

<font id="iconfont" horiz-adv-x="1024" >
  <font-face
    font-family="iconfont"
    font-weight="500"
    font-stretch="normal"
    units-per-em="1024"
    ascent="896"
    descent="-128"
  />
    <missing-glyph />
    
    <glyph glyph-name="weixin" unicode="&#59070;" d="M671.2 444.352c10.336 0 20.48-0.768 30.656-1.952-27.456 128-164.224 223.008-320.384 223.008-174.528 0-317.472-118.912-317.472-270.016 0-87.2 47.552-158.752 127.04-214.368l-31.744-95.488 111.008 55.616c39.68-7.776 71.52-15.872 111.168-15.872 10.016 0 19.872 0.48 29.6 1.216-6.144 21.216-9.824 43.392-9.824 66.592C401.344 331.744 520.448 444.352 671.2 444.352L671.2 444.352zM500.512 530.4c24 0 39.744-15.744 39.744-39.648 0-23.744-15.744-39.68-39.744-39.68-23.712 0-47.584 15.936-47.584 39.68C452.928 514.688 476.768 530.4 500.512 530.4L500.512 530.4zM278.336 451.072c-23.84 0-47.84 15.936-47.84 39.68 0 23.904 24 39.648 47.84 39.648 23.84 0 39.616-15.712 39.616-39.648C317.984 467.008 302.176 451.072 278.336 451.072L278.336 451.072zM961.056 196.864c0 126.944-127.04 230.368-269.728 230.368-151.072 0-270.016-103.488-270.016-230.368 0-127.296 118.976-230.368 270.016-230.368 31.616 0 63.52 7.872 95.264 15.872l87.072-47.776-23.872 79.36C913.504 61.888 961.056 125.248 961.056 196.864L961.056 196.864zM603.744 236.64c-15.776 0-31.744 15.712-31.744 31.744 0 15.776 15.968 31.712 31.744 31.712 24.096 0 39.744-15.936 39.744-31.712C643.488 252.352 627.872 236.64 603.744 236.64L603.744 236.64zM778.368 236.64c-15.648 0-31.552 15.712-31.552 31.744 0 15.776 15.872 31.712 31.552 31.712 23.904 0 39.744-15.936 39.744-31.712C818.112 252.352 802.272 236.64 778.368 236.64L778.368 236.64zM778.368 236.64"  horiz-adv-x="1024" />

    
    <glyph glyph-name="qq" unicode="&#58905;" d="M113.009843 230.059068c-33.8172-79.616292-39.307238-155.572218-12.158924-169.761382 18.72548-9.775644 48.080042 12.484336 75.55479 53.345975 10.879792-44.522006 37.802978-84.832084 76.257801-117.170606-40.334637-14.890128-66.681702-39.206954-66.681702-66.778916 0-45.325301 71.293743-81.97399 159.28375-81.97399 79.366605 0 145.096632 29.782304 157.228951 68.936045 3.258207 0.049119 15.792685 0.049119 18.951631 0 12.18246-39.104623 77.962629-68.936045 157.278069-68.936045 87.98796 0 159.28375 36.69883 159.28375 81.97399 0 27.522844-26.320459 51.888787-66.681702 66.778916 38.403658 32.388664 65.425082 72.6486 76.255755 117.170606 27.475771-40.86164 56.754608-63.122643 75.505671-53.345975 27.172873 14.189164 21.809725 90.195232-12.131295 169.761382-26.573215 62.571081-62.623269 108.644419-90.196255 118.822223 0.401136 3.961218 0.600681 8.023744 0.600681 12.034081 0 24.166399-6.715959 46.527686-18.198477 64.726164 0.200568 1.404999 0.200568 2.857071 0.200568 4.26207 0 11.129478-2.657526 21.557992-7.172353 30.582529C789.224906 623.127352 683.33625 752.278827 511.995907 752.278827c-171.440627 0-277.379425-129.151475-284.272415-291.793716-4.561899-9.075703-7.193843-19.503193-7.193843-30.582529 0-1.404999 0.100284-2.858094 0.151449-4.26207-11.381212-18.199501-18.099217-40.509622-18.099217-64.726164 0-4.010337 0.151449-8.020674 0.502443-12.034081-27.375487-10.177803-63.548338-56.302307-90.071412-118.822223L113.009843 230.059068z"  horiz-adv-x="1024" />

    
    <glyph glyph-name="icon26" unicode="&#58906;" d="M230.874074 18.28243c-155.517156 155.515259-155.511467 407.656296 0.003793 563.169659 155.513363 155.515259 407.650607 155.517156 563.165867 0.001896 155.517156-155.517156 155.517156-407.658193 0.001896-563.171556C638.53037-137.23283 386.389333-137.234726 230.874074 18.28243zM758.844681 546.254933c-136.07443 136.07443-356.699022 136.078222-492.773452 0.001896-136.07443-136.07443-136.07443-356.699022 0.001896-492.775348 136.07443-136.07443 356.699022-136.07443 492.773452 0C894.921007 189.555911 894.921007 410.180504 758.844681 546.254933zM487.924622 224.493274c-8.440415 0-15.530667 4.471467-20.032474 10.898015-6.422756 4.501807-10.898015 11.590163-10.898015 20.030578l0.001896 289.420326c0.001896 13.748148 11.140741 24.886993 24.888889 24.888889 13.746252-0.001896 24.888889-11.144533 24.888889-24.890785l0-270.565452 171.009896 0c13.746252-0.001896 24.890785-11.144533 24.890785-24.890785-0.001896-13.744356-11.140741-24.885096-24.888889-24.885096L487.924622 224.493274z"  horiz-adv-x="1024" />

    
    <glyph glyph-name="about" unicode="&#58893;" d="M512-59.401646c-244.884336 0-443.401646 198.519356-443.401646 443.401646 0 244.884336 198.517309 443.401646 443.401646 443.401646 244.88229 0 443.401646-198.517309 443.401646-443.401646C955.401646 139.11771 756.88229-59.401646 512-59.401646zM512 766.940622c-211.490785 0-382.937552-171.449837-382.937552-382.939599 0-211.488739 171.44779-382.937552 382.937552-382.937552s382.937552 171.449837 382.937552 382.937552C894.937552 595.490785 723.490785 766.940622 512 766.940622zM532.154016 121.989611l-40.309054 0c-11.131525 0-20.157085 9.025561-20.157085 20.155039L471.687876 484.773148c0 11.131525 9.025561 20.155039 20.157085 20.155039l40.309054 0c11.131525 0 20.155039-9.023514 20.155039-20.155039l0-342.628498C552.309054 131.015172 543.28554 121.989611 532.154016 121.989611zM532.154016 565.394327l-40.309054 0c-11.131525 0-20.157085 9.023514-20.157085 20.152992l0 40.309054c0 11.131525 9.025561 20.155039 20.157085 20.155039l40.309054 0c11.131525 0 20.155039-9.023514 20.155039-20.155039l0-40.309054C552.309054 574.416817 543.28554 565.394327 532.154016 565.394327z"  horiz-adv-x="1024" />

    
    <glyph glyph-name="zhuye" unicode="&#58940;" d="M918.764278 486.610113c-45.392576 53.618644-96.574236 111.754414-150.754878 173.301963C713.256812 722.101199 656.63048 786.422684 605.053433 847.250328c-64.714386 64.1126-132.979808 65.040147-192.181137 2.475529C363.239862 794.007178 306.671969 734.509929 251.959168 676.957295c-55.088295-57.948023-112.049091-117.869257-162.384022-174.367523-34.009618-38.694598-27.716975-69.616954-20.940664-84.599438 10.643159-23.534313 34.719577-37.589251 51.853073-37.589251l79.756552 0 0-265.921072c0-42.432137 31.44581-89.71835 76.561118-89.71835L425.133065 24.761661 425.133065 287.070773l168.843276 0 0-262.311599L743.389634 24.759174c28.446827 0 76.581011 23.218499 76.581011 110.235029L819.970646 380.39984l58.983741 0c21.452928 0 40.074727 11.363064 49.82018 30.388955C940.395007 433.504976 936.93225 461.496733 918.764278 486.610113z"  horiz-adv-x="1024" />

    
    <glyph glyph-name="history1-copy" unicode="&#58909;" d="M511.686 831.982c-247.272 0-447.724-200.452-447.724-447.724s200.452-447.724 447.724-447.724 447.724 200.452 447.724 447.724-200.452 447.724-447.724 447.724zM646.512 674.261c28.1 0 50.878-22.778 50.878-50.878s-22.778-50.878-50.878-50.878c-28.098 0-50.878 22.778-50.878 50.878s22.78 50.878 50.878 50.878zM507.446 687.829c28.1 0 50.878-22.78 50.878-50.878 0-28.1-22.778-50.878-50.878-50.878s-50.878 22.778-50.878 50.878c0 28.098 22.779 50.878 50.878 50.878zM202.18 587.769c0 56.198 45.558 101.756 101.756 101.756s101.756-45.558 101.756-101.756-45.558-101.756-101.756-101.756-101.756 45.558-101.756 101.756zM579.688 38.304c-2.366-0.053-4.828 0.118-7.172 0.451-84.216 11.931-86.55 90.284-76.517 121.64 1.017 3.179 1.832 6.512 2.473 9.934 6.602 35.252-9.376 71.021-37.769 92.932-21.044 16.24-47.708 40.308-68.948 70.941-37.556 54.166-25.982 128.308 28.769 165.005 110.011 73.733 330.899 51.472 333.68-117.493 5.088-309.082-86.631-341.409-174.516-343.41zM768.619 504.668c-28.098 0-50.878 22.778-50.878 50.878 0 28.098 22.78 50.878 50.878 50.878 28.1 0 50.878-22.78 50.878-50.878-0-28.099-22.778-50.878-50.878-50.878z"  horiz-adv-x="1024" />

    
    <glyph glyph-name="iconfontweibowukuang-copy" unicode="&#58885;" d="M726.64 425.219c-34.779 6.722-17.844 25.089-17.844 25.089s34.022 55.406-6.806 95.73c-50.5 49.878-173.429-6.276-173.429-6.276-46.877-14.333-34.478 6.572-27.824 42.116 0 41.966-14.518 112.899-139.563 71.084-124.894-42.263-232.1-189.958-232.1-189.958-74.541-98.118-64.713-173.983-64.713-173.983 18.596-167.562 198.984-213.557 339.302-224.462 147.577-11.349 346.866 50.182 407.194 176.822 60.486 126.791-49.291 176.969-84.218 183.838v0zM414.55 111.752c-146.518-6.718-265.061 65.71-265.061 162.184 0 96.624 118.543 173.984 265.061 180.705 146.669 6.718 265.364-53.018 265.364-149.341-0-96.328-118.696-186.976-265.364-193.548v0zM385.367 391.169c-147.425-17.023-130.338-153.224-130.338-153.224s-1.509-43.16 39.467-65.114c86.183-46.145 175.093-18.216 219.849 38.981 44.908 57.047 18.6 196.234-128.978 179.358v0zM348.17 199.862c-27.516-3.135-49.743 12.547-49.743 35.248 0 22.551 19.654 46.296 47.173 49.13 31.604 2.989 52.167-14.935 52.167-37.783 0.152-22.551-22.228-43.461-49.596-46.596v0zM435.116 272.892c-9.377-6.869-20.866-5.975-25.708 2.388-5.14 8.067-3.174 20.91 6.201 27.629 10.885 8.067 22.227 5.674 27.216-2.388 4.841-8.067 1.361-20.458-7.71-27.629v0zM798.459 484.211c11.946 0 21.927 8.66 23.74 20.008 0.153 0.897 0.3 1.646 0.3 2.543 17.997 159.646-132.605 132.165-132.605 132.165-13.307 0-24.040-10.6-24.040-24.041 0-13.144 10.734-23.749 24.040-23.749 108.112 23.598 84.375-83.18 84.375-83.18-0.152-13.144 10.734-23.746 24.19-23.746v0zM780.919 762.882c-52.013 12.095-105.693 1.64-120.662-1.195-1.209-0.151-2.266-1.198-3.323-1.345-0.457-0.151-0.908-0.597-0.908-0.597-14.817-4.184-25.555-17.623-25.555-33.603 0-18.968 15.573-34.646 35.078-34.646 0 0 18.901 2.538 31.756 7.466 12.699 5.076 120.657 3.732 174.184-84.976 29.186-64.813 12.856-108.123 10.738-115.142 0 0-6.954-16.877-6.954-33.452 0-19.115 15.574-31.215 35.078-31.215 16.179 0 29.786 2.243 33.717 29.273h0.153c57.761 189.215-70.16 278.072-163.302 299.43v0zM780.919 762.882z"  horiz-adv-x="1024" />

    
    <glyph glyph-name="huiyuanjifen" unicode="&#59026;" d="M291.86048 506.64448a220.13952 96.31744 0 1 1 440.27904 0 220.13952 96.31744 0 1 1-440.27904 0ZM512 831.232c-246.9888 0-447.232-200.23808-447.232-447.232s200.23808-447.232 447.232-447.232c246.99392 0 447.232 200.23808 447.232 447.232S758.9888 831.232 512 831.232z m0-701.2096c-140.27264 0-253.98272 58.83904-253.98272 131.42016 0 3.2 0.18944 6.32832 0.65024 9.46176 10.60864-3.4304 21.74976-6.72256 33.19296-9.76384 0.34816-53.03296 98.75968-96.08704 220.13952-96.08704 121.5744 0 220.13952 43.1616 220.1344 96.38912l-0.0768 1.95072a595.80416 595.80416 0 0 1 32.84992 10.17856c0.72704-3.95776 1.07008-8.04864 1.07008-12.12928 0-72.58112-113.71008-131.42016-253.9776-131.42016z m0 122.63936c-140.27264 0-253.98272 58.83904-253.98272 131.33824 0 3.20512 0.18944 6.41024 0.65024 9.53856a580.5056 580.5056 0 0 1 33.19296-9.76384c0.34816-53.12512 98.75968-96.09728 220.13952-96.09728 121.5744 0 220.13952 43.12064 220.1344 96.32256l-0.0768 1.99168a586.76224 586.76224 0 0 1 32.84992 10.22976c0.72704-4.04992 1.07008-8.09984 1.07008-12.22144 0-72.4992-113.71008-131.33824-253.9776-131.33824z m0 122.63936c-140.26752 0-253.98272 58.77248-253.98272 131.33824 0 72.58112 113.7152 131.33824 253.98272 131.33824s253.9776-58.76736 253.9776-131.33824c0-72.58112-113.71008-131.33824-253.9776-131.33824z"  horiz-adv-x="1024" />

    
    <glyph glyph-name="youxiang" unicode="&#58908;" d="M180.914396 708.148611h662.9919c45.248553 0 82.3301-35.730783 82.868359-79.605036L512.61603 403.544125 98.457406 628.325611c0.413416 43.973514 37.132712 79.823 82.45699 79.823z m-82.498946-165.976172l-0.375553-398.027225c0-44.314275 37.293371-80.57206 82.873476-80.572061h662.991899c45.581128 0 82.873476 36.257785 82.873476 80.572061V542.371984L522.331299 327.891098a21.236674 21.236674 0 0 0-19.841907 0L98.41545 542.172439z"  horiz-adv-x="1024" />

    
    <glyph glyph-name="yue" unicode="&#58884;" d="M532.6 380.2v-161.4c20.6 2.5 37.6 11.5 51.1 26.8 13.4 15.3 20.2 34.3 20.2 56.8 0 19.2-4.8 34.7-14.3 46.4-9.6 11.7-28.6 22.1-57 31.4z m-80 180.2c-11.9-13.3-17.8-29.1-17.8-47.4 0-18.1 5-33.2 15.2-45.4 10.1-12.2 27.2-21.9 51.4-29.2V585.1c-20.7-3.1-36.9-11.4-48.8-24.7zM513 797.5c-220.9 0-400-179.1-400-400s179.1-400 400-400 400 179.1 400 400-179.1 400-400 400z m110.3-583.4c-23.4-24.5-53.6-37.7-90.7-39.5v-47.3h-31.2V174c-26.5 3.3-48.1 9.3-64.6 17.8-16.6 8.5-30.9 22.3-43 41.4-12.1 19-19.1 42.3-21.1 69.8l53.3 10c4.1-28.5 11.4-49.4 21.8-62.7 14.9-18.8 32.8-29.3 53.6-31.5V387.5c-21.8 4.1-44.1 12.6-66.9 25.3-16.9 9.4-29.9 22.5-39 39.2-9.1 16.7-13.7 35.6-13.7 56.8 0 37.7 13.3 68.2 40 91.6 17.9 15.7 44.4 25.3 79.5 28.9V669h31.2v-39.7c30.8-2.9 55.3-12 73.3-27.1C629 583 643 556.6 647.7 523l-54.8-8.3c-3.1 20.8-9.7 36.8-19.6 47.9-9.9 11.1-23.5 18.4-40.8 21.9v-152.8c26.7-6.7 44.4-11.9 53-15.6 16.5-7.3 29.9-16.1 40.3-26.5 10.4-10.4 18.4-22.8 24-37.1 5.6-14.3 8.4-29.8 8.4-46.5 0.1-36.8-11.6-67.4-34.9-91.9z"  horiz-adv-x="1024" />

    
    <glyph glyph-name="erji" unicode="&#58888;" d="M1128.009143 290.377143a34.962286 34.962286 0 0 0-34.669714 35.328v56.32C1093.339429 626.395429 898.194286 825.270857 658.285714 825.270857c-239.908571 0-435.053714-198.948571-435.053714-443.392v-56.32a34.962286 34.962286 0 0 0-34.596571-35.254857 34.962286 34.962286 0 0 0-34.669715 35.328v56.32C153.965714 665.307429 380.196571 896 658.285714 896c278.089143 0 504.32-230.619429 504.32-514.048v-56.32a34.962286 34.962286 0 0 0-34.596571-35.254857M138.605714 257.755429a70.070857 70.070857 0 0 1-69.339428-70.656v-141.238858c0-38.912 31.085714-70.656 69.339428-70.656h69.266286V257.755429h-69.266286z m103.862857-353.133715h-103.862857C62.171429-95.378286 0-32.036571 0 45.860571V187.099429c0 77.897143 62.171429 141.238857 138.605714 141.238857h103.862857c19.236571 0 34.669714-15.798857 34.669715-35.328v-353.060572a34.962286 34.962286 0 0 0-34.596572-35.328zM1108.699429-24.795429h69.266285a70.070857 70.070857 0 0 1 69.339429 70.656V187.099429a70.070857 70.070857 0 0 1-69.339429 70.656h-69.266285v-282.550858z m69.266285-70.582857h-103.862857a34.962286 34.962286 0 0 0-34.669714 35.328V293.010286c0 19.529143 15.433143 35.328 34.596571 35.328h103.936C1254.4 328.411429 1316.571429 264.996571 1316.571429 187.099429v-141.238858c0-77.897143-62.171429-141.238857-138.605715-141.238857z"  horiz-adv-x="1316" />

    
    <glyph glyph-name="dizhikong" unicode="&#58919;" d="M512-50.879999999999995c-4.32 0-9.12 1.44-12.96 4.32-13.92 10.56-338.88 262.08-338.88 523.68 0 188.16 157.92 341.28 351.84 341.28s351.84-153.12 351.84-341.28c0-261.6-325.44-513.12-338.88-523.68-3.84-2.88-8.64-4.32-12.96-4.32z m0 814.08c-164.64 0-299.04-130.08-299.04-289.44 0-205.92 240.96-416.16 299.04-463.68 57.6 47.52 299.04 257.76 299.04 463.68 0 159.84-134.4 289.44-299.04 289.44z m0-429.6c-79.68 0-144.48 63.36-144.48 141.12s64.8 141.12 144.48 141.12 144.48-63.36 144.48-141.12c0-7.68-0.96-15.84-2.4-25.44-1.92-11.04-12.96-18.24-24-16.32-11.04 1.92-18.72 12.48-16.8 23.52 1.44 6.72 1.92 12.48 1.92 17.76 0 55.68-46.56 100.8-103.2 100.8-57.12 0-103.2-45.12-103.2-100.8s46.56-100.8 103.2-100.8c5.28 0 11.04 0.48 18.24 1.92 11.04 1.92 22.08-5.28 24-16.32 1.92-11.04-5.28-21.6-16.8-23.52-9.12-1.44-17.28-1.92-25.44-1.92z"  horiz-adv-x="1024" />

    
    <glyph glyph-name="bangzhu" unicode="&#58962;" d="M512 896C229.28 896 0.057 666.777 0.057 384.057S229.28-127.885 512-127.885s511.943 229.223 511.943 511.942S794.834 896 512 896z m-16.381-821.354c-32.763 0-59.34 27.15-59.34 60.485 0 33.45 26.577 60.485 59.34 60.485s59.339-27.035 59.339-60.485-26.577-60.485-59.34-60.485z m165.76 380.091c-8.248-15.58-17.87-29.097-29.212-40.437-11.226-11.341-31.502-30.472-60.713-57.278-8.02-7.56-14.549-14.204-19.36-19.932-4.811-5.728-8.477-10.997-10.883-15.694-2.405-4.697-4.238-9.508-5.498-14.32-1.26-4.81-3.208-13.173-5.843-25.087-4.467-25.43-18.672-38.032-42.385-38.032-12.371 0-22.681 4.124-31.158 12.487-8.477 8.362-12.601 20.62-12.601 37 0 20.506 3.093 38.262 9.279 53.269 6.186 15.006 14.319 28.18 24.514 39.52 10.196 11.342 23.942 24.86 41.24 40.438 15.235 13.632 26.118 23.942 32.877 30.93 6.758 6.988 12.486 14.663 17.068 23.255 4.583 8.591 6.988 17.755 6.988 27.836 0 19.474-7.102 35.97-21.192 49.373-14.09 13.403-32.305 20.162-54.643 20.162-26.118 0-45.363-6.76-57.62-20.276-12.372-13.518-22.797-33.45-31.274-59.798-8.019-27.607-23.369-41.354-45.936-41.354-13.288 0-24.515 4.811-33.679 14.434-9.164 9.623-13.746 20.047-13.746 31.273 0 23.14 7.216 46.624 21.65 70.451 14.434 23.827 35.627 43.53 63.349 59.11 27.722 15.58 60.14 23.37 97.142 23.37 34.366 0 64.837-6.53 91.07-19.59 26.348-13.059 46.738-30.815 61.058-53.267 14.319-22.453 21.536-46.853 21.536-73.2 0.229-20.735-3.78-38.949-12.028-54.643z"  horiz-adv-x="1024" />

    
    <glyph glyph-name="santiaogang" unicode="&#58907;" d="M0 390.865c0 0.723 0.723 2.168 0.723 2.89 3.613 18.79 13.007 33.243 29.628 42.637 7.227 4.336 15.176 5.782 23.125 6.504H961.13c20.234 0 35.41-8.672 46.973-24.57 8.671-12.285 12.285-25.293 10.84-40.469-2.891-23.124-18.79-43.359-42.637-49.14-6.504-1.445-13.008-2.168-20.234-2.168H58.535c-23.848 0-39.746 11.563-51.308 31.074-3.614 5.781-5.059 12.285-6.504 18.79 0 0.722-0.723 2.167-0.723 2.89v11.562zM0 690.766c0 0.723 0.723 2.168 0.723 2.891 3.613 18.789 13.007 33.242 29.628 42.637 7.227 4.335 15.176 5.78 23.125 6.503H961.13c20.234 0 35.41-8.671 46.973-24.57 8.671-12.285 12.285-25.293 10.84-40.468-2.891-23.125-18.79-43.36-42.637-49.14-6.504-1.446-13.008-2.169-20.234-2.169H58.535c-23.848 0-39.746 11.563-51.308 31.074-3.614 5.782-5.059 12.285-6.504 18.79 0 1.445-0.723 2.89-0.723 3.613v10.84zM51.308 33.152c-1.445 0-2.168 0.722-3.613 0.722-16.62 3.614-28.183 13.008-36.855 27.461-6.504 10.84-9.395 22.402-8.672 34.688 2.168 24.57 19.512 46.25 44.804 52.03 5.06 1.446 10.84 1.446 16.622 1.446h899.703c19.512 0 34.687-8.672 46.25-23.848 7.226-10.117 11.562-22.402 11.562-34.687 0-14.453-5.058-27.46-14.453-38.3-9.394-10.84-21.68-17.344-36.132-18.79-0.723 0-1.446 0-2.168-0.722H51.308zM1024 706.665c-0.723 2.168-0.723 5.058-1.445 7.226l1.445-7.226z"  horiz-adv-x="1024" />

    
    <glyph glyph-name="sousuo" unicode="&#58996;" d="M976.451049-48.955029l-209.004138 209.004138a428.359896 428.359896 0 1 1-70.982538-57.673312l213.933481-213.933481a45.842889 45.842889 0 1 1 64.574392 64.574392zM105.436162 464.682498A357.377359 357.377359 0 1 0 462.813521 107.30514 357.870293 357.870293 0 0 0 105.436162 464.682498z"  horiz-adv-x="1024" />

    
    <glyph glyph-name="yue1" unicode="&#58894;" d="M515.4 880.4c-274.2 0-497.2-223-497.2-497.2s223-497.2 497.2-497.2 497.2 223 497.2 497.2-223 497.2-497.2 497.2z m0-923.4c-235 0-426.2 191.2-426.2 426.2S280.4 809.4 515.4 809.4s426.2-191.2 426.2-426.2S750.4-43 515.4-43z m143.3 426.2c19.6 0 35.5 15.9 35.5 35.5s-15.9 35.5-35.5 35.5H550.9V471l131.6 137.5c13.5 14.2 13.3 36.7-0.9 50.2-14.1 13.5-36.4 13-50-1.2L518.8 539 399.4 658.1c-13.9 13.9-36.4 13.8-50.2-0.1-13.9-13.9-14.5-36.4-0.6-50.2l131.3-131.7v-21.9H374.7c-19.6 0-35.5-15.9-35.5-35.5s15.9-35.5 35.5-35.5h105.2v-71H374.7c-19.6 0-35.5-15.9-35.5-35.5s15.9-35.5 35.5-35.5h105.2v-105.6c0-19.6 15.9-35.5 35.5-35.5s35.5 15.9 35.5 35.5V241.1h107.8c19.6 0 35.5 15.9 35.5 35.5s-15.9 35.5-35.5 35.5H550.9v71h107.8z m0 0"  horiz-adv-x="1024" />

    
    <glyph glyph-name="quanyiqia" unicode="&#59008;" d="M263.90016 690.59072h492.94336c64.6912 0 117.13536-52.44416 117.13536-117.13536v-378.12224c0-64.6912-52.44416-117.13536-117.13536-117.13536H263.90016c-64.6912 0-117.13536 52.44416-117.13536 117.13536V573.45536c0 64.6912 52.43904 117.13536 117.13536 117.13536z m4.31616-46.2848c-40.16128 0-72.82688-32.3584-73.20576-72.5248l-3.51744-373.34016v-0.6912c0-40.43264 32.77312-73.21088 73.20576-73.21088h490.24c40.43264 0 73.216 32.77824 73.216 73.216V571.0848c0 40.43264-32.78336 73.216-73.216 73.216H268.21632zM190.39744 559.6928h639.9488v-43.63264H190.39744zM408.56064 443.3408v-43.63776h-218.1632V443.3408h218.1632z m218.1632 0h203.6224v-43.63776h-203.6224V443.3408zM394.22464 443.3408h43.7504a81.3568 81.3568 0 0 1-0.32768-7.2704c0-44.1856 35.8144-80 79.99488-80s79.99488 35.8144 79.99488 79.99488c0 2.4576-0.11264 4.87936-0.32768 7.2704h43.7504c0.13824-2.4064 0.20992-4.83328 0.20992-7.2704 0-68.2752-55.3472-123.62752-123.62752-123.62752s-123.62752 55.3472-123.62752 123.62752c0 2.44224 0.07168 4.864 0.20992 7.2704z"  horiz-adv-x="1024" />

    
    <glyph glyph-name="xuanzhong" unicode="&#59979;" d="M512 896C229.2224 896 0 666.7776 0 384s229.2224-512 512-512 512 229.2224 512 512S794.7776 896 512 896m301.9776-387.328l-338.3808-342.016-1.4336-2.9184-4.1472-2.56c-3.8912-3.1232-7.68-5.2224-10.5984-6.8096l-0.512-0.3584a35.2256 35.2256 0 0 0-8.6528-4.864 66.6624 66.6624 0 0 0-50.3296 0.3072 37.6832 37.6832 0 0 0-8.0896 4.7616l-0.6656 0.3584a55.7056 55.7056 0 0 0-10.5472 7.0144l-2.7648 1.3312-2.5088 3.7376-165.6832 170.2912a67.4304 67.4304 0 1 0 96.6656 94.0544l119.552-122.88 292.1984 295.424a67.2768 67.2768 0 0 0 95.3856 0.4608 67.584 67.584 0 0 0 0.512-95.3344"  horiz-adv-x="1024" />

    
    <glyph glyph-name="location" unicode="&#58626;" d="M512.103132 575.879021a106.221743 106.221743 0 1 0-75.507022-31.354611A106.221743 106.221743 0 0 0 512.103132 575.879021m0 63.989002a170.850635 170.850635 0 1 1 120.939214-49.911422A169.570855 169.570855 0 0 1 512.103132 639.868023zM805.172761 771.685367a407.609942 407.609942 0 0 1-586.139257 0 431.285873 431.285873 0 0 1 0-599.576948L512.103132-128l293.069629 300.108419a431.285873 431.285873 0 0 1 0 599.576948z m-44.152411-557.344207l-248.917218-255.956007-248.917217 255.956007a365.377201 365.377201 0 0 0 0 508.712565 346.82039 346.82039 0 0 0 497.834435 0 365.377201 365.377201 0 0 0 0-508.712565z"  horiz-adv-x="1024" />

    
    <glyph glyph-name="huidaodingbu" unicode="&#58925;" d="M512 896C229.376 896 0 666.624 0 384s229.376-512 512-512 512 229.376 512 512S794.624 896 512 896zM269.824 604.672H752.64c11.776 0 20.992-9.728 20.992-20.992s-9.728-20.992-20.992-20.992H269.824c-11.776 0-20.992 9.728-20.992 20.992s9.216 20.992 20.992 20.992z m500.224-343.04c-8.192-8.192-21.504-8.192-30.208 0L532.48 469.504v-368.64c0-11.776-9.728-20.992-20.992-20.992-11.776 0-20.992 9.728-20.992 20.992V466.432L285.184 261.12c-4.096-4.096-9.216-6.144-14.848-6.144-5.632 0-10.752 2.048-14.848 6.144-4.096 4.096-6.144 9.216-6.144 14.848 0 5.632 2.048 10.752 6.144 14.848l242.688 242.688c4.096 4.096 9.216 6.144 14.848 6.144 5.632 0 10.752-2.048 14.848-6.144l242.688-242.688c7.68-7.68 7.68-20.992-0.512-29.184z"  horiz-adv-x="1024" />

    
    <glyph glyph-name="gouwuche" unicode="&#58883;" d="M347.136 112.63999999999999q19.456 0 36.864-7.168t30.72-19.968 20.48-30.208 7.168-36.864-7.168-36.864-20.48-30.208-30.72-20.48-36.864-7.68q-20.48 0-37.376 7.68t-30.208 20.48-20.48 30.208-7.168 36.864 7.168 36.864 20.48 30.208 30.208 19.968 37.376 7.168zM773.12 110.59199999999998q19.456 0 37.376-7.168t30.72-19.968 20.48-30.208 7.68-36.864-7.68-36.864-20.48-30.208-30.72-20.48-37.376-7.68-36.864 7.68-30.208 20.48-20.48 30.208-7.68 36.864 7.68 36.864 20.48 30.208 30.208 19.968 36.864 7.168zM945.152 692.2239999999999q28.672 0 44.544-7.68t22.528-18.944 6.144-24.064-3.584-22.016-12.8-37.888-22.016-62.976-24.064-68.096-17.92-53.248q-13.312-40.96-33.792-56.832t-50.176-15.872l-34.816 0-66.56 0-87.04 0-95.232 0-253.952 0 15.36-92.16 516.096 0q49.152 0 49.152-41.984 0-20.48-9.728-35.328t-38.4-14.848l-49.152 0-95.232 0-117.76 0-119.808 0-98.304 0-56.32 0q-20.48 0-34.304 9.216t-23.04 24.064-14.848 32.256-8.704 32.768q-1.024 6.144-5.632 29.696t-11.264 58.88-14.848 78.848-16.384 87.552q-19.456 103.424-44.032 230.4l-76.8 0q-15.36 0-25.6 7.68t-16.896 18.432-9.216 23.04-2.56 22.528q0 20.48 13.824 33.792t37.376 13.312l22.528 0 20.48 0 25.6 0 34.816 0q20.48 0 32.768-6.144t19.456-15.36 10.24-19.456 5.12-17.408q2.048-8.192 4.096-23.04t4.096-30.208q3.072-18.432 6.144-38.912l700.416 0z"  horiz-adv-x="1024" />

    
    <glyph glyph-name="umidd17" unicode="&#58886;" d="M938.7008 226.47466699999995L938.7008 646.587733c0 90.555733-73.5232 164.078933-164.1472 164.078933L249.378133 810.666667c-90.555733 0-164.078933-73.48906699-164.078933-164.078933l0-525.2096c0-90.555733 73.454933-164.078933 164.07893301-164.078933l525.20959999 0c80.725333 0 147.8656 58.368 161.553067 135.099733-43.52 18.8416-232.106667 100.283733-330.376533 147.182933-74.786133-90.589867-153.088-144.930133-271.121067-144.930133s-196.81279999 72.704-187.357867 161.655467c6.2464 58.402133 46.2848 153.9072 220.296533 137.5232 91.682133-8.6016 133.666133-25.736533 208.418133-50.414933 19.3536 35.4304 35.4304 74.513067 47.616 116.0192L292.0448 459.434667l0 32.8704 164.0448 0 0 58.9824L256 551.287467l1e-8 36.181333 200.12373299 0L456.123733 672.6656c0 0 1.809067 13.312 16.520533 13.31200001l82.056533-1e-8 0-98.474667 213.333333 0 0-36.181333-213.333333-1e-8 0-58.98239999 174.045867 0c-16.00853301-65.1264-40.277333-124.962133-70.690133-177.220267C708.608 296.82346700000005 938.7008 226.47466699999995 938.7008 226.47466699999995L938.7008 226.47466699999995 938.7008 226.47466699999995 938.7008 226.47466699999995zM321.57013299 151.00586699999997c-124.7232 0-144.452267 78.7456-137.83039999 111.65013299 6.5536 32.733867 42.666667 75.502933 112.0256 75.50293301 79.6672 0 151.04-20.445867 236.714667-62.088533C472.302933 197.66613299999995 398.370133 151.00586699999997 321.57013299 151.00586699999997L321.57013299 151.00586699999997 321.57013299 151.00586699999997zM321.57013299 151.00586699999997"  horiz-adv-x="1024" />

    
    <glyph glyph-name="dizhi" unicode="&#58633;" d="M300.8 121.60000000000002c-6.4 12.8-19.2 19.2-38.4 19.2-108.8-25.6-179.2-64-179.2-115.2 0-89.6 192-140.8 428.8-140.8s428.8 51.2 428.8 140.8c0 57.6-76.8 96-192 121.6-19.2 6.4-38.4-6.4-38.4-25.6 0-19.2 6.4-32 25.6-38.4 89.6-19.2 140.8-44.8 140.8-57.6l-19.2-19.2c-19.2-12.8-44.8-19.2-76.8-32-70.4-19.2-166.4-32-268.8-32s-198.4 12.8-268.8 32c-32 6.4-57.6 19.2-76.8 32-12.8 6.4-19.2 12.8-19.2 19.2 0 12.8 51.2 38.4 128 57.6 32 6.4 32 25.6 25.6 38.4zM876.8 524.8C876.8 729.6 710.4 889.6 512 889.6S147.2 723.2 147.2 524.8c0-102.4 38.4-192 102.4-256L454.4 64c25.6-25.6 76.8-25.6 102.4 0L768 262.4c70.4 70.4 108.8 160 108.8 262.4z m-313.6-384c-51.2-51.2-51.2-51.2-102.4 0L294.4 307.20000000000005c-51.2 57.6-89.6 128-89.6 217.6C204.8 691.2 339.2 832 512 832c166.4 0 307.2-134.4 307.2-307.2 0-83.2-32-160-89.6-217.6l-166.4-166.4zM512 704C409.6 704 326.4 620.8 326.4 524.8c0-102.4 83.2-185.6 185.6-185.6s185.6 83.2 185.6 185.6C697.6 620.8 614.4 704 512 704z m0-307.2c-70.4 0-121.6 57.6-121.6 121.6C390.4 588.8 448 640 512 640s121.6-57.6 121.6-121.6S582.4 396.8 512 396.8z"  horiz-adv-x="1024" />

    
    <glyph glyph-name="xuanzhong1" unicode="&#58881;" d="M512-128a512 512 0 1 0 512 512 512.128 512.128 0 0 0-512-512z m270.293333 713.386667a42.666667 42.666667 0 0 1-60.373333 0l-309.546667-309.333334-122.24 122.026667a42.666667 42.666667 0 0 1-60.373333-60.16l152.533333-152.533333a42.496 42.496 0 0 1 60.16 0l339.84 339.626666a42.666667 42.666667 0 0 1 0 60.373334z"  horiz-adv-x="1024" />

    
    <glyph glyph-name="guanyu" unicode="&#59099;" d="M512 778.46528C294.15424 778.46528 117.53472 601.88672 117.53472 384S294.15424-10.46528 512-10.46528 906.46528 166.11328 906.46528 384 729.88672 778.46528 512 778.46528zM490.63936 142.1312C432.0256 146.432 403.456 188.08832 408.22784 238.592c4.97664 51.93728 74.89536 121.91744 62.27968 166.07232-6.144 21.8112-99.08224 5.5296-103.8336 20.80768-5.81632 18.82112 63.65184 74.83392 145.408 62.23872 16.73216-2.53952 57.09824-40.96 62.34112-62.23872 11.81696-48.49664-15.42144-107.39712-41.55392-145.408-18.26816-29.184-26.23488-30.14656-20.86912-62.13632 16.896-16.05632 27.19744-23.40864 82.98496-20.74624-20.62336-47.43168-86.528-56.58624-104.3456-55.05024z m42.16832 366.44864a62.27968 62.27968 0 1 0 62.23872 62.27968 62.30016 62.30016 0 0 0-62.23872-62.27968z"  horiz-adv-x="1024" />

    
    <glyph glyph-name="jifen" unicode="&#58887;" d="M498.631 827.44c-6.297 0-12.509-0.13-18.72-0.347-12.942-0.467-22.933-10.978-22.455-23.422 0.523-12.476 11.38-22.194 24.237-21.717v0.032c5.604 0.196 11.293 0.337 16.94 0.337 236.406-0.455 427.687-185.307 428.12-413.897 0-142.896-74.834-268.741-188.802-343.143-10.685-6.993-13.465-21.022-6.255-31.36 4.517-6.472 11.857-9.925 19.372-9.925a24.07 24.07 0 0 1 13.03 3.82c126.26 82.459 209.346 222.228 209.39 380.607-0.002 253.51-212.563 459.015-474.857 459.015zM519.87 387.43c0.827 0 1.781 0.085 2.78 0.216l0.61 0.065h105.02c3.69 0 4.82 1.107 4.82 4.842V503.047c0 1.303 0 3.67-5.298 4.865H521.434c-2.171 0-4.864 0-4.864-6.69v-109.039l-0.043-0.368c-0.391-2.084-0.131-3.236 0.217-3.647 0.302-0.349 1.302-0.739 3.127-0.739zM484.343 752.669c-222.455 0-402.79-174.33-402.79-389.368 0-215.015 180.336-389.313 402.79-389.313 222.506 0 402.8 174.298 402.8 389.313 0 215.038-180.293 389.368-402.8 389.368z m-75.054-452.976a446.192 446.192 0 0 1-6.905 8.815v-139.2c-1.044-10.903-7.036-24.282-29.795-26.062h-0.651c-24.661 1.78-29.828 15.375-29.828 26.451v99.375c-5.473-14.028-11.445-25.93-17.806-35.486l-0.109-0.13c-7.621-10.467-16.766-15.745-27.255-15.745-4.69 0-9.641 1.087-14.81 3.214l-0.392 0.195c-10.967 5.993-21.455 17.94-9.077 40.893l0.13 0.238c26.994 43.432 48.602 94.468 64.324 151.734h-42.218c-12.074 0-26.472 5.233-26.472 30.142l0.021 0.326c1.369 18.067 11.684 28.382 29.795 29.794l0.348 0.022h43.52v38.113c-4.583-0.869-10.359-1.738-17.2-2.605l-0.543-0.022h-18.134c-2.932-0.37-5.667-0.543-8.208-0.543-21.326 0-27.797 12.292-29.535 22.607l-0.064 0.348v0.369c0 19.197 10.771 31.49 31.12 35.572l0.455 0.087h14.898c43.673 4.842 76.932 9.761 98.778 14.626l0.305 0.054a48.89 48.89 0 0 0 7.122 0.533c15.374 0 26.017-8.23 30.839-23.813l0.13-0.478v-0.478c1.39-18.111-8.036-29.882-27.233-34.051a2433.988 2433.988 0 0 1-14.681-3.648l-0.52-0.13h-7.254v-46.539l29.229-0.022c8.209-0.781 17.85-4.365 22.845-15.939v66.67c-1.345 14.963 1.347 26.256 8.037 33.552 6.383 7.036 16.33 10.293 29.577 9.664h156.36c16.854 0.652 29.316-3.127 37.179-11.336 6.992-7.318 10.207-17.98 9.642-31.793v-158.184c0.609-13.768-2.302-24.15-8.73-30.858-5.647-5.93-13.898-8.927-24.539-8.927-1.997 0-4.124 0.086-6.339 0.325h-167.22c-1.044-0.065-2.042-0.109-3.086-0.109-9.598 0-17.2 2.825-22.453 8.384-6.254 6.601-9.12 17.11-8.426 31.185v62.239c-5.038-12.161-14.897-15.137-23.28-15.137h-28.796v-7.1a7372.195 7372.195 0 0 1 10.163-13.508c24.887-31.143 38.743-48.625 42.392-53.465l0.348-0.567c9.555-17.763 8.079-33.14-4.43-45.648l-0.392-0.323c-5.948-4.755-11.944-7.17-17.894-7.17-8.123 0-15.939 4.5-23.193 13.358l-0.089 0.13z m145.458-27.08c-22.193-40.61-50.904-79.939-85.39-116.943l-0.39-0.368c-8.512-7.101-17.331-10.683-26.06-10.683-7.906 0-15.853 2.929-23.541 8.708l-0.392 0.26-0.26 0.304c-8.774 9.818-15.332 25.539 3.864 44.694 25.32 25.32 50.512 60.327 74.793 103.98l0.086 0.171c7.558 12.25 17.027 18.46 28.19 18.46 5.081 0 10.424-1.303 16.026-3.865l0.478-0.26c17.895-11.08 22.282-26.456 12.596-44.458zM696.73 158.58l-0.304-0.216-0.391-0.132c-4.039-1.477-7.95-2.214-11.597-2.214-10.382 0-18.764 5.732-24.973 17.026-26.712 43.736-50.164 78.898-69.667 104.5-5.56 7.6-7.689 14.899-6.472 21.761 1.303 7.21 6.297 13.79 14.855 19.523l0.218 0.107c13.725 8.251 28.753 6.297 43.65-5.907l0.391-0.302 0.304-0.392c25.713-33.096 49.428-71.144 70.406-113.054l0.304-0.567c5.471-16.657-0.263-30.533-16.724-40.133z"  horiz-adv-x="1024" />

    
    <glyph glyph-name="shoucang" unicode="&#58899;" d="M773.12-102.4c-15.36 0-28.16 5.12-33.28 10.24L512 25.6l-230.4-117.76c-23.04-12.8-53.76-10.24-74.24 5.12-23.04 17.92-33.28 46.08-28.16 74.24l48.64 256-181.76 174.08c-17.92 20.48-25.6 51.2-20.48 76.8 10.24 28.16 30.72 48.64 58.88 51.2l250.88 48.64 112.64 238.08C460.8 855.04 486.4 870.4 512 870.4c28.16 0 53.76-17.92 64-40.96l112.64-238.08 250.88-46.08c25.6-2.56 48.64-23.04 56.32-51.2 7.68-25.6 2.56-56.32-17.92-76.8l-181.76-176.64 46.08-256c5.12-28.16-5.12-56.32-28.16-74.24-10.24-7.68-25.6-12.8-40.96-12.8zM245.76-25.6zM102.4 468.48l207.36-202.24L256-20.48l253.44 130.56 250.88-130.56-51.2 286.72 207.36 202.24-286.72 51.2L512 783.36l-122.88-258.56L102.4 468.48z m824.32 2.56s0-2.56 0 0z m-5.12 2.56zM504.32 796.16z"  horiz-adv-x="1024" />

    
    <glyph glyph-name="left" unicode="&#58986;" d="M348.99379407 378.31054615999994l422.93654668 422.9437849c17.77417782 17.76259666 17.77417782 46.59388232 1e-8 64.35792663-17.76259666 17.77417782-46.59388232 17.77417782-64.35792664 0l-455.12057675-455.12347204c-17.77852076-17.76259666-17.77852076-46.59388232 0-64.35792662l455.1220244-455.12202442c8.88419362-8.88853654 20.53194038-13.33425247 32.17823949-13.33425246s23.29549351 4.44571592 32.17823949 13.33425246c17.77852076 17.76259666 17.77852076 46.59388232 0 64.35792664l-422.93944197 422.94523255z"  horiz-adv-x="1024" />

    
    <glyph glyph-name="xuanzhong2" unicode="&#58895;" d="M512-128C229.2224-128 0 101.2224 0 384S229.2224 896 512 896s512-229.2224 512-512-229.2224-512-512-512z m184.832 652.4928l-249.6512-224.3072L341.504 395.5712a51.2 51.2 0 1 1-68.608-76.032l139.8784-126.2592a51.2 51.2 0 0 1 68.5568-0.1024l283.904 255.1296a51.2 51.2 0 0 1-68.4032 76.1856z"  horiz-adv-x="1024" />

    
    <glyph glyph-name="wancheng" unicode="&#58922;" d="M512 834C263.473 834 62 632.527 62 384s201.473-450 450-450 450 201.473 450 450S760.527 834 512 834z m245.278-337.305L478.854 218.273c-10.983-10.983-28.791-10.983-39.774 0L266.722 390.63c-10.985 10.982-10.985 28.79 0 39.774l13.257 13.257c10.985 10.985 28.793 10.985 39.776 0l139.21-139.21 245.277 245.276c10.984 10.982 28.793 10.982 39.776 0l13.257-13.258c10.987-10.984 10.987-28.79 0.003-39.774z"  horiz-adv-x="1024" />

    
    <glyph glyph-name="xuanzhongyuandian1" unicode="&#58627;" d="M512-67.76470594a451.76470594 451.76470594 0 1 0 0 903.52941188 451.76470594 451.76470594 0 0 0 0-903.52941188z m0 56.47058813a395.29411781 395.29411781 0 1 1 0 790.58823562 395.29411781 395.29411781 0 0 1 0-790.58823562z"  horiz-adv-x="1024" />

    
    <glyph glyph-name="erji1" unicode="&#59464;" d="M564.244898 18.285714c-11.493878 0-20.897959 9.404082-20.897959 20.897959s9.404082 20.897959 20.897959 20.89796c124.342857 0 225.697959 101.355102 225.697959 225.697959 0 11.493878 9.404082 20.897959 20.897959 20.897959s20.897959-9.404082 20.89796-20.897959c0-147.330612-120.163265-267.493878-267.493878-267.493878zM830.693878 461.322449c-11.493878 0-20.897959 9.404082-20.89796 20.897959C809.795918 635.297959 676.04898 760.163265 512 760.163265S214.204082 635.297959 214.204082 482.220408c0-11.493878-9.404082-20.897959-20.89796-20.897959s-20.897959 9.404082-20.897959 20.897959C172.408163 658.808163 324.963265 801.959184 512 801.959184s339.591837-143.15102 339.591837-319.738776c0-11.493878-9.404082-20.897959-20.897959-20.897959zM198.530612 264.881633h-10.448979c-51.722449 0-94.040816 42.318367-94.040817 94.040816v50.155102c0 51.722449 42.318367 94.040816 94.040817 94.040816h10.448979c51.722449 0 94.040816-42.318367 94.040817-94.040816v-50.155102c0-51.722449-42.318367-94.040816-94.040817-94.040816z m-10.448979 196.440816c-28.734694 0-52.244898-23.510204-52.244898-52.244898v-50.155102c0-28.734694 23.510204-52.244898 52.244898-52.244898h10.448979c28.734694 0 52.244898 23.510204 52.244898 52.244898v50.155102c0 28.734694-23.510204 52.244898-52.244898 52.244898h-10.448979zM835.918367 264.881633h-10.448979c-51.722449 0-94.040816 42.318367-94.040817 94.040816v50.155102c0 51.722449 42.318367 94.040816 94.040817 94.040816h10.448979c51.722449 0 94.040816-42.318367 94.040817-94.040816v-50.155102c0-51.722449-42.318367-94.040816-94.040817-94.040816z m-10.448979 196.440816c-28.734694 0-52.244898-23.510204-52.244898-52.244898v-50.155102c0-28.734694 23.510204-52.244898 52.244898-52.244898h10.448979c28.734694 0 52.244898 23.510204 52.244898 52.244898v50.155102c0 28.734694-23.510204 52.244898-52.244898 52.244898h-10.448979zM512-33.959184c-40.228571 0-73.142857 32.914286-73.142857 73.142857s32.914286 73.142857 73.142857 73.142858 73.142857-32.914286 73.142857-73.142858-32.914286-73.142857-73.142857-73.142857z m0 104.489796c-17.240816 0-31.346939-14.106122-31.346939-31.346939s14.106122-31.346939 31.346939-31.346938 31.346939 14.106122 31.346939 31.346938-14.106122 31.346939-31.346939 31.346939z"  horiz-adv-x="1024" />

    
    <glyph glyph-name="quanyiqia1" unicode="&#58928;" d="M827.392 703.488H192c-71.68 0-130.048-55.808-130.048-123.904v-65.536H957.44V579.584c0 68.608-58.368 123.904-130.048 123.904zM61.952 125.44c0-68.608 58.368-123.904 130.048-123.904h635.392c71.68 0 130.048 55.808 130.048 123.904V387.072H61.952v-261.632z m540.672 67.584H788.48c18.432 0 33.792-15.36 33.792-33.792s-15.36-33.792-33.792-33.792h-186.368c-18.432 0-33.792 15.36-33.792 33.792s15.36 33.792 34.304 33.792z"  horiz-adv-x="1024" />

    
    <glyph glyph-name="shouhuo" unicode="&#59044;" d="M512-128C229.2224-128 0 101.2224 0 384S229.2224 896 512 896s512-229.2224 512-512-229.2224-512-512-512z m-238.7968 368.2304a1569.7408 1569.7408 0 0 1 131.4816 39.936v-153.6H461.824v46.6944l30.72-49.7664c61.44 33.1776 111.8208 73.728 151.7568 121.6512 36.864-46.08 80.4864-88.4736 130.8672-126.5664l39.936 47.3088a710.8096 710.8096 0 0 0-135.168 129.024c41.7792 70.0416 65.7408 152.9856 70.656 248.832h48.5376V600.8832h-194.1504c6.144 25.1904 12.288 52.224 17.2032 80.4864L563.8144 691.2c-17.2032-108.1344-50.3808-194.1504-98.9184-258.048l35.6352-44.2368c11.0592 13.5168 22.1184 27.648 32.5632 43.6224 20.2752-49.152 45.4656-95.8464 75.5712-139.4688-36.864-46.6944-86.016-85.4016-146.8416-114.8928V686.2848H404.6848v-350.208c-25.1904-9.8304-50.3808-18.432-76.1856-26.4192v325.632H271.36V307.20000000000005c0-7.9872-5.5296-14.1312-15.36-17.8176l17.2032-49.152z m313.9584 303.5136h108.1344c-4.3008-75.5712-21.504-141.9264-52.224-198.4512a683.008 683.008 0 0 0-76.1856 149.2992c7.3728 15.9744 14.1312 31.9488 20.2752 49.152z"  horiz-adv-x="1024" />

    
    <glyph glyph-name="shoucang1" unicode="&#58903;" d="M233.2 31.700000000000045L273 270.6S129 417.9 113.7 429.9c-19.9 15.6-29.9 86.4 39.8 99.5l219 19.9L472 728.5c21 38.3 58.5 32.1 79.6 0L631.3 609c18.6-26.1-15-62.5-39.8-19.9 0 0-29.5 53-59.7 99.5-19.9 30.6-27.1 25.7-39.8 0-31.4-63.2-67.3-137.4-79.6-159.3-10.6-17.1-20.9-17.2-39.8-19.9-22.7 0.6-164.8-12.1-219-19.9-19.6-2.8-19.1-21.2 0-39.8 43.3-42.1 159.3-159.3 159.3-159.3 6.5-6.4 5.3-16.7 0-39.8l-39.8-219 219 119.4c12.3 7.9 31.8 4.2 39.8 0 0 0 187.3-108.9 199.1-119.4 11.8-10.6 21.3-9.5 19.9 0-9.4 63.4-39.8 219-39.8 219-5.9 26.3 4.7 49.7 19.9 59.7 0 0 94.7 96 139.3 139.4 21.1 20.5 24.6 36.3 0 39.8-45.1 6.5-139.4 19.9-139.4 19.9-46.3 5.9-32.5 44.6 0 39.8l159.3-19.9c45.1-7.1 47.6-73.6 19.9-99.5L750.8 270.6l39.8-238.9c6.4-44.8-26.9-68.1-79.6-39.8L511.9 111.39999999999998 292.9-8c-26.9-13.4-65.5-1.1-59.7 39.7z"  horiz-adv-x="1024" />

    
    <glyph glyph-name="location1" unicode="&#58628;" d="M512.103132 575.879021a106.221743 106.221743 0 1 0-75.507022-31.354611A106.221743 106.221743 0 0 0 512.103132 575.879021m0 63.989002a170.850635 170.850635 0 1 1 120.939214-49.911422A169.570855 169.570855 0 0 1 512.103132 639.868023zM805.172761 771.685367a407.609942 407.609942 0 0 1-586.139257 0 431.285873 431.285873 0 0 1 0-599.576948L512.103132-128l293.069629 300.108419a431.285873 431.285873 0 0 1 0 599.576948z m-44.152411-557.344207l-248.917218-255.956007-248.917217 255.956007a365.377201 365.377201 0 0 0 0 508.712565 346.82039 346.82039 0 0 0 497.834435 0 365.377201 365.377201 0 0 0 0-508.712565z"  horiz-adv-x="1024" />

    
    <glyph glyph-name="kefu" unicode="&#58889;" d="M516.373 96.86c4.86 0 9.717 0.277 14.718 0.833 47.613 5.691 88.009 39.009 103.002 84.819 1.11 3.469-0.557 7.08-3.748 8.606-3.192 1.526-7.218 0.137-9.021-2.916-0.137-0.277-19.158-30.817-92.73-40.813a233.282 233.282 0 0 0-31.928-2.221c-51.64 0-74.684 19.434-74.822 19.712a6.962 6.962 0 0 1-9.162 0.137c-2.639-2.221-3.331-6.107-1.527-9.163 22.488-36.231 62.745-58.997 105.222-58.997z m0 0zM912.552 553.425c-0.694 0-1.25-0.137-1.804-0.137C867.576 740.271 702.525 879.644 504.852 879.644c-203.227 0-371.889-147.144-409.37-341.764-36.37-6.524-63.993-38.452-63.993-77.181v-154.642c0-43.309 34.704-78.57 77.739-78.57 24.155 0 45.533 11.384 59.83 29.014 34.422-90.923 104.251-164.08 192.813-202.812 0.277 0.417 1.943 3.748 3.888 6.386 1.387 1.805 2.915 3.331 4.304 3.331 1.388 0 2.638-0.556 3.748-1.249-20.545 15.27-94.534 93.7-110.498 203.087-7.08 48.169 29.013 95.368 71.074 103.279 67.465 12.493 134.511 26.791 201.976 39.145 42.896 7.774 72.184 31.37 90.094 70.519 4.164 9.162 10.273 27.624 13.047 54.276 0.694 4.026 4.026 7.08 8.19 7.08 2.778 0 5.138-1.388 6.664-3.47l1.804 1.11c26.514-38.592 79.265-124.102 86.898-214.195 8.745-103.002 3.887-173.518-74.96-245.702-0.138-0.137-0.278-0.137-0.278-0.277-1.11-1.249-1.804-2.776-1.804-4.443 0-2.221 1.249-4.164 2.915-5.273 0.694-0.278 1.25-0.557 1.943-0.834 0.557-0.137 0.972-0.277 1.526-0.277s0.973 0.137 1.527 0.277c1.109 0.556 2.221 1.25 3.33 1.804 79.68 43.866 140.898 117.3 169.217 205.448 11.383-16.936 29.29-29.29 50.114-33.455-33.316-151.864-168.8-246.817-336.489-261.251-9.994 24.988-34.842 42.616-63.856 42.616-37.895 0-68.714-30.125-68.714-67.048 0-37.065 30.818-67.048 68.714-67.048 30.541 0 56.221 19.712 65.105 46.641 194.206 15.826 349.817 131.182 382.298 310.531 28.736 11.94 48.864 40.117 48.864 73.017V474.3c-0.137 43.727-35.953 79.126-79.957 79.126z m-71.628-44.839c-50.668 137.152-181.848 235.155-336.212 235.155-153.808 0-284.435-97.172-335.656-233.489-2.497 3.054-5.552 5.83-8.467 8.468C189.463 684.883 332.442 811.066 504.853 811.066c171.575 0 314.002-125.072 343.985-289.986a72.973 72.973 0 0 1-7.911-12.494z m0 0zM361.872 53.827c-0.137-0.138-0.137-0.138 0 0z m0 0z"  horiz-adv-x="1024" />

    
    <glyph glyph-name="wodedangxuan" unicode="&#58648;" d="M961.72259555-133.29749332999995H59.94723555c-18.64135111 0-37.28270222 9.32067555-48.93354666 23.30168888-11.65084445 16.31118222-16.31118222 34.95253333-11.65084444 53.59388445 46.60337778 237.67722667 240.00739555 414.77006222 473.02428444 433.41141333 78.06065778 0 162.52928-9.90321778 246.99790222-44.27320888 24.46677333-9.90321778 32.62236445-16.31118222 46.60337778-23.3016889 135.14979555-76.89557333 228.35655111-209.7152 258.64874666-365.83651555 4.66033778-18.64135111 0-37.28270222-13.98101333-53.59388445-11.65084445-13.98101333-30.29219555-23.30168889-48.93354667-23.30168888zM61.11232-95.43224888999998c-7.57304889 0-14.56355555 2.91271111-18.64135111 8.15559111-0.58254222 0.58254222-0.58254222 1.16508445-1.16508444 1.74762667-5.82542222 5.82542222-6.40796445 15.72864-5.24288 21.55406222 43.10812445 221.36604445 224.27875555 387.39057778 440.98446222 403.11921778h17.47626666c104.27505778 0 204.47232-32.62236445 253.40586667-63.49710222C876.08888889 198.75157333000004 961.72259555 78.16533332999995 988.51953778-63.974968890000014c1.16508445-8.15559111-0.58254222-15.72864-6.40796445-23.30168889-4.07779555-5.24288-11.06830222-8.15559111-18.64135111-8.15559111H61.11232zM494.52373333 325.16323554999997c101.36234667 0 198.64689778-31.45728 245.83281778-61.16693333h0.58254222c124.66403555-73.98286222 207.38503111-191.07384889 233.01688889-329.71889777 0.58254222-2.91271111 0.58254222-6.99050667-4.07779555-12.23338667-0.58254222-1.16508445-3.49525333-2.33016889-6.99050667-2.33016889H61.11232c-3.49525333 0-6.40796445 1.16508445-6.99050667 2.33016889-0.58254222 1.16508445-1.74762667 2.33016889-2.91271111 2.91271111-1.16508445 1.16508445-2.33016889 4.66033778-1.16508444 8.73813333 41.94304 214.95808 217.28824889 375.73973333 427.58599111 391.46837333 5.24288-0.58254222 11.06830222 0 16.89372444 0m0 29.12711112c-5.82542222 0-12.23338667 0-18.05880888-0.58254222C252.76871111 337.39662222000004 66.3552 167.29429332999996 22.08199111-61.06225777999998c-2.33016889-11.65084445 0-25.63185778 9.32067556-34.95253333 6.99050667-9.32067555 18.64135111-13.98101333 30.29219555-13.98101334H963.47022222c11.65084445 0 23.30168889 4.66033778 30.29219556 13.98101334 6.99050667 9.32067555 11.65084445 20.97152 9.32067555 34.95253333-27.96202667 149.13080889-116.50844445 271.46467555-246.99790222 349.52533333-49.51608889 30.87473778-150.87843555 65.82727111-261.56145778 65.82727112zM512 356.03797333c-146.80064 0-267.96942222 121.16878222-267.96942222 267.96942222S365.19936 891.97681778 512 891.97681778s267.96942222-121.16878222 267.96942222-267.96942223S658.80064 356.03797333 512 356.03797333zM512 393.90321778c-126.99420445 0-230.10417778 103.10997333-230.10417778 230.10417777S385.00579555 854.11157333 512 854.11157333s230.10417778-103.10997333 230.10417778-230.10417778-103.10997333-230.10417778-230.10417778-230.10417777zM512 839.54801778c118.83861333 0 215.54062222-96.70200889 215.54062222-215.54062223S630.83861333 408.46677333 512 408.46677333s-215.54062222 96.70200889-215.54062222 215.54062222 96.70200889 215.54062222 215.54062222 215.54062223m0 29.12711111c-135.14979555 0-244.66773333-109.51793778-244.66773333-244.66773334s109.51793778-244.66773333 244.66773333-244.66773333 244.66773333 109.51793778 244.66773333 244.66773333S647.14979555 868.67512889 512 868.67512889z"  horiz-adv-x="1024" />

    
    <glyph glyph-name="huiyuanhuangguanguanjun" unicode="&#59208;" d="M512 832c-247.296 0-448-200.704-448-448s200.704-448 448-448 448 200.704 448 448-200.704 448-448 448z m216.064-626.176c-23.552-27.648-111.616-50.176-216.064-50.176-107.008 0-196.096 20.992-217.6 50.176l-44.032 220.672c-5.12-2.048-10.24-3.072-15.872-3.072-21.504 0-39.936 17.408-39.936 38.912 0 21.504 17.92 38.912 39.936 38.912 21.504 0 39.936-17.408 39.936-38.912 0-14.336-7.68-26.112-19.456-33.28l129.024-112.64 115.712 202.752c-19.968 6.144-34.816 23.552-34.816 45.568 0 26.112 20.992 47.616 47.616 47.616 26.112 0 47.616-20.992 47.616-47.616 0-23.04-16.896-41.984-38.4-46.08l133.12-203.776 127.488 109.056-54.272-218.112z m61.44 217.6c-21.504 0-39.936 17.408-39.936 38.912s17.92 38.912 39.936 38.912c21.504 0 39.936-17.408 39.936-38.912s-17.92-38.912-39.936-38.912z"  horiz-adv-x="1024" />

    
    <glyph glyph-name="shoucang2" unicode="&#58911;" d="M511.9 831.979c-247.164 0-447.53-200.367-447.53-447.529 0-247.164 200.366-447.53 447.53-447.53 247.162 0 447.53 200.366 447.53 447.53 0 247.162-200.368 447.529-447.53 447.529z m120.055-619.816c-57.551-40.79-106.836-98.107-112.772-121.36-6.933 23.732-51.183 79.472-113.353 120.22-64.115 42.016-160.413 81.303-159.681 186.406 1.32 191.365 202.014 229.837 272.617 64.958 67.358 158.305 271.541 128.026 272.868-63.816 0.732-105.099-96.753-141.806-159.68-186.408z"  horiz-adv-x="1024" />

    
    <glyph glyph-name="xuanzhong3" unicode="&#58629;" d="M740.4 573.3c12.5 11.9 32.2 11.5 44.2-0.9 11.9-12.5 11.5-32.2-0.9-44.2L414.2 174 240.3 340.6c-12.5 11.9-12.9 31.7-0.9 44.2 11.9 12.5 31.7 12.9 44.2 0.9l130.6-125.1 326.2 312.7zM512-64C264.6-64 64 136.60000000000002 64 384S264.6 832 512 832s448-200.6 448-448-200.6-448-448-448z m0 62.5c212.9 0 385.5 172.6 385.5 385.5S724.9 769.5 512 769.5 126.5 596.9 126.5 384 299.1-1.5 512-1.5z"  horiz-adv-x="1024" />

    
    <glyph glyph-name="shengrijiniantixing" unicode="&#58653;" d="M830.464 459.776c-5.12 133.632-102.4 254.464-231.424 287.232V752.64c0 51.712-35.328 95.232-87.04 95.232-52.736 0-87.04-43.52-87.04-95.232v-5.632c-133.12-36.352-222.72-150.016-231.424-287.232v-229.888c0-10.24-4.096-20.48-11.264-27.648l-58.88-60.416c-10.752-11.264-16.896-26.112-16.896-41.472 0-32.768 26.624-59.392 59.392-59.392h203.776c14.848-66.56 72.192-115.712 141.824-115.712s127.488 49.152 141.824 115.712h203.776c32.768 0 59.392 26.624 59.392 59.392 0 15.36-6.144 30.208-16.896 41.472l-58.88 60.416c-7.168 7.68-11.264 17.408-11.264 27.648V459.776zM512 793.088c17.408 0 28.672-14.848 28.672-34.304H483.328c0 19.456 11.264 34.304 28.672 34.304z m0-811.008c-36.864-0.512-70.144 23.04-81.408 58.368h162.304c-10.752-35.328-44.032-58.88-80.896-58.368z m347.136 115.712H164.864v3.072l75.264 77.824c7.168 7.68 11.264 17.408 11.264 27.648v250.88c0 124.928 137.216 243.2 261.12 243.2 125.44 0 260.096-117.248 260.096-242.688v-250.368c0-10.24 4.096-20.48 11.264-27.648l75.776-77.824-0.512-4.096z"  horiz-adv-x="1024" />

    
    <glyph glyph-name="xuanzhong4" unicode="&#58645;" d="M740.4 573.3c12.5 11.9 32.2 11.5 44.2-0.9 11.9-12.5 11.5-32.2-0.9-44.2L414.2 174 240.3 340.6c-12.5 11.9-12.9 31.7-0.9 44.2 11.9 12.5 31.7 12.9 44.2 0.9l130.6-125.1 326.2 312.7zM512-64C264.6-64 64 136.6 64 384S264.6 832 512 832s448-200.6 448-448-200.6-448-448-448z m0 62.5c212.9 0 385.5 172.6 385.5 385.5S724.9 769.5 512 769.5 126.5 596.9 126.5 384 299.1-1.5 512-1.5z"  horiz-adv-x="1024" />

    
    <glyph glyph-name="xuanzhongyuandian" unicode="&#58904;" d="M512-59.231372609999994a451.76470594 451.76470594 0 1 0 0 903.52941188 451.76470594 451.76470594 0 0 0 0-903.52941188z m0 56.47058813a395.29411781 395.29411781 0 1 1 0 790.58823562 395.29411781 395.29411781 0 0 1 0-790.58823562z"  horiz-adv-x="1024" />

    
    <glyph glyph-name="huidaodingbu1" unicode="&#58630;" d="M511.99872 896C229.23008 896 0 666.76864 0 384c0-282.76992 229.23008-512 512-512 282.7712 0 512 229.23008 512 512C1024 666.76864 794.76992 896 511.99872 896zM743.37024 291.00032c-8.61696 0-16.47744 3.49312-22.1376 9.13792L542.752 478.53824l0-414.38592c0-17.24544-13.98528-31.2448-31.24608-31.2448-17.27744 0-31.27552 14.00064-31.27552 31.2448l0 0.02944L480.2304 477.568 303.33952 300.65920000000006c-5.7088-5.96736-13.7536-9.67552-22.67904-9.67552-17.35168 0-31.41376 14.06208-31.41376 31.4304 0 8.6144 3.49184 16.43008 9.09312 22.0928l230.90816 230.9376c5.72288 6.03136 13.76768 9.81504 22.74048 9.81504 8.8128 0 16.79872-3.67744 22.47552-9.53856L765.61408 344.5376l0-0.02944c5.64736-5.6448 9.13792-13.47712 9.13792-22.12224C774.752 305.04704000000004 760.70656 291.00032 743.37024 291.00032zM772.9216 614.1376L251.07712 614.1376c-17.2608 0-31.27552 14.03008-31.27552 31.2768 0 17.2928 14.01472 31.27808 31.27552 31.27808l521.84576 0c17.25952 0 31.27808-13.98528 31.27808-31.27808C804.19968 628.16896 790.1824 614.1376 772.9216 614.1376z"  horiz-adv-x="1024" />

    
    <glyph glyph-name="shezhi" unicode="&#58910;" d="M881 384c0 52.4 32.9 96.8 79 114.5-11 43.2-28 83.9-50.2 121.3C864.6 599.7 810 607.9 773 645c-37 37-45.2 91.7-25.1 136.8C710.4 804 669.7 821 626.5 832c-17.8-46.1-62.2-79-114.5-79-52.4 0-96.8 32.9-114.5 79-43.2-11-83.9-28-121.3-50.2 20.1-45.2 11.9-99.8-25.1-136.8-37-37-91.7-45.2-136.8-25.2C92 582.4 75 541.7 64 498.5c46.1-17.8 79-62.2 79-114.5 0-52.4-32.9-96.8-79-114.5 11-43.2 28-83.9 50.2-121.3C159.4 168.3 214 160.1 251 123c37-37 45.2-91.7 25.1-136.8C313.6-36 354.3-53 397.5-64c17.8 46.1 62.2 79 114.5 79 52.4 0 96.8-32.9 114.5-79 43.2 11 83.9 28 121.3 50.2-20.1 45.2-11.9 99.8 25.1 136.8 37 37 91.7 45.2 136.8 25.2C932 185.6 949 226.3 960 269.5c-46.1 17.7-79 62.1-79 114.5zM512 261c-67.9 0-123 55.1-123 123s55.1 123 123 123 123-55.1 123-123-55.1-123-123-123z"  horiz-adv-x="1024" />

    
    <glyph glyph-name="feneli-copy" unicode="&#58636;" d="M386.67299798 709.88839531H286.36047628C231.23950943 709.88839531 186.11160469 664.76049057 186.11160469 609.6395237199999V509.3906521c0-55.12096687 45.12790475-100.2488716 100.2488716-100.24887161H386.6093479c55.12096687 0 100.2488716 45.12790475 100.24887161 100.24887161V609.6395237199999C486.92186958 664.76049057 441.79396483 709.88839531 386.67299798 709.88839531z m350.96652574 0H637.32700202c-55.12096687 0-100.2488716-45.12790475-100.2488716-100.2488716V509.3906521c0-55.12096687 45.12790475-100.2488716 100.2488716-100.24887161h100.24887161c55.12096687 0 100.2488716 45.12790475 100.24887161 100.24887161V609.6395237199999C837.88839531 664.76049057 792.76049057 709.88839531 737.63952372 709.88839531zM386.67299798 358.92186958H286.36047628C231.23950943 358.92186958 186.11160469 313.79396483000005 186.11160469 258.67299798v-100.24887161C186.11160469 103.23950943 231.23950943 58.111604690000036 286.36047628 58.111604690000036H386.6093479c55.12096687 0 100.2488716 45.12790475 100.24887161 100.2488716V258.67299798c0.06365008 55.12096687-45.06425466 100.2488716-100.18522153 100.2488716z m350.96652574 0H637.32700202c-55.12096687 0-100.2488716-45.12790475-100.2488716-100.2488716v-100.2488716c0-55.12096687 45.12790475-100.2488716 100.2488716-100.24887162h100.24887161c55.12096687 0 100.2488716 45.12790475 100.24887161 100.24887162V258.67299798c0.06365008 55.12096687-45.06425466 100.2488716-100.18522153 100.2488716z"  horiz-adv-x="1024" />

    
    <glyph glyph-name="youhuiquan" unicode="&#58631;" d="M56.186633 784.7177389999999A111.304299 111.304299 0 0 0 167.713541 895.999777h679.04527a111.348821 111.348821 0 0 0 111.526908-111.282038V-16.69547799999998a111.304299 111.304299 0 0 0-111.526908-111.282039H167.713541a111.304299 111.304299 0 0 0-111.526908 111.259778V784.7177389999999zM129.335819 756.157056v-744.336372a66.626754 66.626754 0 0 1 66.738057-66.693537h622.324599a66.849362 66.849362 0 0 1 66.738058 66.693537V756.157056a66.626754 66.626754 0 0 1-66.738058 66.693536H196.073876A66.849362 66.849362 0 0 1 129.335819 756.157056zM122.969213 740.173758h784.472702v-48.751283H122.991473zM122.969213 72.34796200000005h784.472702v-48.751284H122.991473zM641.491422 577.9366110000001l-123.325164-164.196102-123.280642 164.196102a23.618772 23.618772 0 0 1-33.190942 4.65252 23.641033 23.641033 0 0 1-4.674781-33.190942l131.539422-175.126185h-88.909875c-13.133907 0-23.707816-10.573908-23.707816-23.707816s10.573908-23.707816 23.707816-23.707815h94.831263v-47.415632h-94.831263c-13.133907 0-23.707816-10.573908-23.707816-23.707816s10.573908-23.707816 23.707816-23.707815h94.831263v-71.123448h0.089044c0-0.178087-0.089043-0.422956-0.089044-0.601043 0-13.133907 10.573908-23.707816 23.707816-23.707816s23.707816 10.596169 23.707816 23.707816c0 0.178087-0.089043 0.422956-0.089044 0.601043h0.089044v71.123448h94.831263c13.133907 0 23.730077 10.573908 23.730077 23.707815s-10.573908 23.707816-23.707816 23.707816h-94.853524v47.415632h94.831263c13.133907 0 23.730077 10.573908 23.730077 23.707815s-10.573908 23.707816-23.707816 23.707816H547.839984l131.606204 175.126185a23.730077 23.730077 0 1 1-37.954766 28.538422z"  horiz-adv-x="1024" />

    
    <glyph glyph-name="shoucang3" unicode="&#65180;" d="M780.781-67.775c-12.045 0.516-23.746 3.442-34.414 8.948l-235.05 117.525-236.771-117.353c-24.263-12.733-53.687-10.668-75.884 5.334-22.37 16.691-33.554 44.739-28.908 72.27l48.696 253.118-186.182 173.62c-19.616 19.961-27.187 48.87-20.132 75.885 8.26 27.187 31.49 46.975 59.709 50.589l258.624 47.147 115.804 235.05C458.49 879.482 483.613 895.485 511.49 896c28.047 0 53.342-16.175 65.215-41.641l115.632-235.05 258.452-45.256c27.704-3.785 50.417-23.745 57.816-50.589 8.948-26.67 1.893-56.095-18.067-75.883L804.355 272.067l46.976-253.118c4.99-27.703-6.195-55.75-28.908-72.27a65.215 65.215 0 0 0-41.642-14.454z"  horiz-adv-x="1024" />

    
    <glyph glyph-name="xuanzebeifen" unicode="&#59272;" d="M512 876.202667a492.202667 492.202667 0 1 0 0-984.405334A492.202667 492.202667 0 0 0 512 876.202667z m0-915.114667a422.912 422.912 0 1 1 0 845.824 422.912 422.912 0 0 1 0-845.824z"  horiz-adv-x="1024" />

    
    <glyph glyph-name="left1" unicode="&#58916;" d="M675.00620593 389.68945384l-422.93654668-422.9437849c-17.77417782-17.76259666-17.77417782-46.59388232-1e-8-64.35792663 17.76259666-17.77417782 46.59388232-17.77417782 64.35792664 0l455.12057675 455.12347204c17.77852076 17.76259666 17.77852076 46.59388232 0 64.35792662l-455.1220244 455.12202442c-8.88419362 8.88853654-20.53194038 13.33425247-32.17823949 13.33425246s-23.29549351-4.44571592-32.17823949-13.33425246c-17.77852076-17.76259666-17.77852076-46.59388232 0-64.35792664l422.93944197-422.94523255z"  horiz-adv-x="1024" />

    
    <glyph glyph-name="shoujiduan" unicode="&#59603;" d="M736.981333 896a85.333333 85.333333 0 0 0 85.333334-85.333333v-853.333334a85.333333 85.333333 0 0 0-85.333334-85.333333H256a85.333333 85.333333 0 0 0-85.333333 85.333333V810.666667a85.333333 85.333333 0 0 0 85.333333 85.333333h480.981333z m-240.512-837.802667a69.802667 69.802667 0 1 1 0-139.648 69.802667 69.802667 0 0 1 0 139.648z m232.746667 698.154667H263.68v-651.605333h465.493333V756.352z m-93.994667-263.210667l2.773334-2.730666a21.333333 21.333333 0 0 0 0-30.165334l-233.130667-233.130666a21.333333 21.333333 0 0 0-30.208 0l-2.730667 2.730666a21.333333 21.333333 0 0 0 0 30.165334l233.130667 233.130666a21.333333 21.333333 0 0 0 30.165333 0z m-34.56 155.050667l2.730667-2.730667a21.333333 21.333333 0 0 0 0-30.165333l-167.296-167.338667a21.333333 21.333333 0 0 0-30.165333 0l-2.773334 2.773334a21.333333 21.333333 0 0 0 0 30.165333l167.296 167.253333a21.333333 21.333333 0 0 0 30.208 0z m35.456 201.258667H356.864v-46.506667h279.253333v46.506667z"  horiz-adv-x="1024" />

    
    <glyph glyph-name="youhuiquan1" unicode="&#58632;" d="M887.466667 315.733333v-204.8a34.133333 34.133333 0 0 0-34.133334-34.133333H170.666667a34.133333 34.133333 0 0 0-34.133334 34.133333v204.8a68.266667 68.266667 0 1 1 0 136.533334V657.066667a34.133333 34.133333 0 0 0 34.133334 34.133333h682.666666a34.133333 34.133333 0 0 0 34.133334-34.133333v-204.8a68.266667 68.266667 0 1 1 0-136.533334z m-68.266667-34.133333c-30.856533 17.066667-68.266667 42.9056-68.266667 102.4s37.410133 85.333333 68.266667 102.4V622.933333H204.8v-136.533333c34.133333-17.066667 68.266667-46.557867 68.266667-102.4s-34.133333-85.333333-68.266667-102.4v-136.533333h614.4v136.533333z m-443.733333 238.933333h68.266666v-273.066666h-68.266666v273.066666z"  horiz-adv-x="1024" />

    
    <glyph glyph-name="add" unicode="&#58892;" d="M800 416H544V672c0 17.664-14.336 32-32 32s-32-14.336-32-32v-256H224c-17.664 0-32-14.336-32-32s14.336-32 32-32h256v-256c0-17.696 14.336-32 32-32s32 14.304 32 32V352h256c17.696 0 32 14.336 32 32s-14.304 32-32 32z"  horiz-adv-x="1024" />

    
    <glyph glyph-name="appreciate" unicode="&#58896;" d="M873.6 480H684.8c12.8 44.8 28.8 115.2 19.2 188.8-6.4 60.8-41.6 105.6-92.8 124.8-38.4 12.8-76.8 6.4-99.2-16-25.6-25.6-38.4-76.8-51.2-128-9.6-35.2-16-70.4-28.8-89.6-32-54.4-102.4-76.8-115.2-80H224c-19.2 0-32-12.8-32-32v-448c0-19.2 12.8-32 32-32h547.2C896-32 960 358.4 960 380.8c0 57.6-44.8 99.2-86.4 99.2zM771.2 35.2H256V416h76.8c22.4 6.4 108.8 38.4 150.4 108.8 16 25.6 25.6 64 35.2 105.6 9.6 38.4 19.2 86.4 35.2 99.2 3.2 3.2 19.2 6.4 38.4 0 16-3.2 41.6-19.2 48-67.2 12.8-102.4-32-201.6-32-201.6-3.2-9.6-3.2-22.4 3.2-32 6.4-9.6 16-16 25.6-16h236.8c6.4 0 25.6-12.8 25.6-32-3.2-67.2-83.2-345.6-128-345.6zM96 480c-19.2 0-32-12.8-32-32v-448c0-19.2 12.8-32 32-32s32 12.8 32 32V448c0 19.2-12.8 32-32 32z"  horiz-adv-x="1024" />

    
    <glyph glyph-name="appreciate_fill" unicode="&#58897;" d="M873.6 480H684.8c12.8 44.8 28.8 115.2 19.2 188.8-6.4 60.8-41.6 105.6-92.8 124.8-38.4 12.8-76.8 6.4-99.2-16-25.6-25.6-38.4-76.8-51.2-128-9.6-35.2-16-70.4-28.8-89.6-32-54.4-102.4-76.8-115.2-80H224c-19.2 0-32-12.8-32-32v-448c0-19.2 12.8-32 32-32h547.2C896-32 960 358.4 960 380.8c0 57.6-44.8 99.2-86.4 99.2zM96 480c-19.2 0-32-12.8-32-32v-448c0-19.2 12.8-32 32-32s32 12.8 32 32V448c0 19.2-12.8 32-32 32z"  horiz-adv-x="1024" />

    
    <glyph glyph-name="back" unicode="&#58898;" d="M671.968-16c-12.288 0-24.576 4.672-33.952 14.048L286.048 350.016c-18.752 18.72-18.752 49.12 0 67.872l351.968 352c18.752 18.752 49.12 18.752 67.872 0 18.752-18.72 18.752-49.12 0-67.872L387.872 383.968l318.016-318.016c18.752-18.752 18.752-49.12 0-67.872-9.344-9.408-21.632-14.08-33.92-14.08z"  horiz-adv-x="1024" />

    
    <glyph glyph-name="comment" unicode="&#58900;" d="M512-32a31.912 31.912 0 0 0-22.624 9.376l-96 96c-12.512 12.512-12.512 32.736 0 45.248s32.736 12.512 45.248 0L512 45.248l73.376 73.376C591.36 124.64 599.488 128 608 128h224c17.664 0 32 14.336 32 32V672c0 17.632-14.336 32-32 32H192c-17.632 0-32-14.368-32-32v-512c0-17.664 14.368-32 32-32h96c17.664 0 32-14.304 32-32s-14.336-32-32-32h-96c-52.928 0-96 43.072-96 96V672c0 52.928 43.072 96 96 96h640c52.928 0 96-43.072 96-96v-512c0-52.928-43.072-96-96-96H621.248l-86.624-86.624A31.912 31.912 0 0 0 512-32zM336 384c-26.464 0-48 21.536-48 48s21.536 48 48 48 48-21.536 48-48-21.536-48-48-48zM528 384c-26.464 0-48 21.536-48 48s21.536 48 48 48 48-21.536 48-48-21.536-48-48-48zM720 384c-26.464 0-48 21.536-48 48s21.536 48 48 48 48-21.536 48-48-21.536-48-48-48z"  horiz-adv-x="1024" />

    
    <glyph glyph-name="apps" unicode="&#58901;" d="M387.264 416.32h-192c-52.928 0-96 43.072-96 96v192c0 52.928 43.072 96 96 96h192c52.928 0 96-43.072 96-96v-192c0-52.96-43.072-96-96-96z m-192 320c-17.632 0-32-14.368-32-32v-192c0-17.632 14.368-32 32-32h192c17.632 0 32 14.368 32 32v192c0 17.632-14.368 32-32 32h-192zM387.264-31.68h-192c-52.928 0-96 43.072-96 96v192c0 52.928 43.072 96 96 96h192c52.928 0 96-43.072 96-96v-192c0-52.96-43.072-96-96-96z m-192 320c-17.632 0-32-14.336-32-32v-192c0-17.664 14.368-32 32-32h192c17.632 0 32 14.336 32 32v192c0 17.664-14.368 32-32 32h-192zM832.128 416.32h-192c-52.928 0-96 43.072-96 96v192c0 52.928 43.072 96 96 96h192c52.928 0 96-43.072 96-96v-192c0-52.96-43.072-96-96-96z m-192 320c-17.664 0-32-14.368-32-32v-192c0-17.632 14.336-32 32-32h192c17.664 0 32 14.368 32 32v192c0 17.632-14.336 32-32 32h-192zM832.128-31.68h-192c-52.928 0-96 43.072-96 96v192c0 52.928 43.072 96 96 96h192c52.928 0 96-43.072 96-96v-192c0-52.96-43.072-96-96-96z m-192 320c-17.664 0-32-14.336-32-32v-192c0-17.664 14.336-32 32-32h192c17.664 0 32 14.336 32 32v192c0 17.664-14.336 32-32 32h-192z"  horiz-adv-x="1024" />

    
    <glyph glyph-name="check" unicode="&#58902;" d="M887.904 597.792c-12.864 12.064-33.152 11.488-45.216-1.408L415.936 142.016l-233.12 229.696c-12.608 12.416-32.864 12.288-45.28-0.32-12.416-12.576-12.256-32.864 0.352-45.248l256.48-252.672c0.096-0.096 0.224-0.128 0.32-0.224s0.128-0.224 0.224-0.32c2.016-1.92 4.448-3.008 6.784-4.288 1.152-0.672 2.144-1.664 3.36-2.144 3.776-1.472 7.776-2.24 11.744-2.24 4.192 0 8.384 0.832 12.288 2.496 1.312 0.544 2.336 1.664 3.552 2.368 2.4 1.408 4.896 2.592 6.944 4.672 0.096 0.096 0.128 0.256 0.224 0.352 0.064 0.096 0.192 0.128 0.288 0.224L889.28 552.576c12.16 12.832 11.488 33.088-1.376 45.216z"  horiz-adv-x="1024" />

    
    <glyph glyph-name="backward_fill" unicode="&#58912;" d="M814.976 673.696c-10.432 5.504-23.168 4.832-32.96-1.824L576 531.712V645.408c0 11.872-6.56 22.72-17.024 28.288-10.432 5.504-23.168 4.832-32.96-1.824l-384-261.248a31.994 31.994 0 0 1 0-52.928l384-261.376c5.408-3.68 11.68-5.568 17.984-5.568 5.12 0 10.272 1.216 14.976 3.712C569.44 100 576 110.912 576 122.752V236.544L782.016 96.32c5.408-3.68 11.68-5.568 17.984-5.568 5.12 0 10.272 1.216 14.976 3.712C825.44 100 832 110.912 832 122.752V645.408c0 11.872-6.56 22.72-17.024 28.288z"  horiz-adv-x="1024" />

    
    <glyph glyph-name="comment_fill" unicode="&#58913;" d="M832 768H192c-52.928 0-96-43.072-96-96v-512c0-52.928 43.072-96 96-96h210.752l86.624-86.624c6.24-6.24 14.432-9.376 22.624-9.376s16.384 3.136 22.624 9.376L621.248 64H832c52.928 0 96 43.072 96 96V672c0 52.928-43.072 96-96 96zM336 384c-26.464 0-48 21.536-48 48s21.536 48 48 48 48-21.536 48-48-21.536-48-48-48z m192 0c-26.464 0-48 21.536-48 48s21.536 48 48 48 48-21.536 48-48-21.536-48-48-48z m192 0c-26.464 0-48 21.536-48 48s21.536 48 48 48 48-21.536 48-48-21.536-48-48-48z"  horiz-adv-x="1024" />

    
    <glyph glyph-name="delete_fill" unicode="&#58914;" d="M928 672H768v64c0 52.928-42.72 96-95.264 96H352c-52.928 0-96-43.072-96-96v-64H96c-17.696 0-32-14.304-32-32s14.304-32 32-32h832c17.696 0 32 14.304 32 32s-14.304 32-32 32zM800 544H224.064c-8.48 0-16.64-3.136-22.656-9.088-6.016-6.016-9.408-13.92-9.408-22.432V32c0-52.928 43.136-96 96.064-96h448.064C789.056-64 832-20.928 832 32V512c0 17.632-14.336 31.936-32 32zM448 96c0-17.696-14.304-32-32-32s-32 14.304-32 32V448c0 17.696 14.304 32 32 32s32-14.304 32-32v-352z m192 0c0-17.696-14.304-32-32-32s-32 14.304-32 32V448c0 17.696 14.304 32 32 32s32-14.304 32-32v-352z"  horiz-adv-x="1024" />

    
    <glyph glyph-name="community_fill" unicode="&#58915;" d="M704 163.2c51.2 0 96 41.6 96 96V672c0 51.2-41.6 96-96 96H156.8c-51.2 0-96-41.6-96-96v-412.8c0-51.2 41.6-96 96-96H192v-160c0-12.8 9.6-25.6 22.4-32h9.6c9.6 0 19.2 3.2 25.6 12.8l131.2 179.2H704zM864 643.2c-19.2 0-32-12.8-32-32s16-32 32-32 32-12.8 32-32v-348.8c0-19.2-16-25.6-32-25.6h-32c-19.2 0-32-12.8-32-32v-3.2c0-3.2-3.2-6.4-3.2-9.6v-60.8l-73.6 57.6c-3.2 3.2-9.6 3.2-16 3.2H544c-19.2 0-32-12.8-32-32s12.8-32 32-32h153.6l115.2-89.6c6.4-3.2 12.8-6.4 19.2-6.4 3.2 0 9.6 0 12.8 3.2 9.6 6.4 19.2 16 19.2 28.8V108.8c54.4 0 96 38.4 96 89.6V547.2c0 51.2-44.8 96-96 96z"  horiz-adv-x="1024" />

    
    <glyph glyph-name="close" unicode="&#58917;" d="M557.312 382.752l265.28 263.904c12.544 12.48 12.608 32.704 0.128 45.248-12.512 12.576-32.704 12.608-45.248 0.128L512.128 428.096l-263.04 263.84c-12.448 12.48-32.704 12.544-45.248 0.064-12.512-12.48-12.544-32.736-0.064-45.28l262.976-263.776L201.6 119.2c-12.544-12.48-12.608-32.704-0.128-45.248a31.937 31.937 0 0 1 22.688-9.44c8.16 0 16.32 3.104 22.56 9.312l265.216 263.808 265.44-266.24c6.24-6.272 14.432-9.408 22.656-9.408a31.94 31.94 0 0 1 22.592 9.344c12.512 12.48 12.544 32.704 0.064 45.248L557.312 382.752z"  horiz-adv-x="1024" />

    
    <glyph glyph-name="delete" unicode="&#58918;" d="M608 128c-17.696 0-32 14.304-32 32V512c0 17.696 14.304 32 32 32s32-14.304 32-32v-352c0-17.696-14.304-32-32-32zM416 128c-17.696 0-32 14.304-32 32V512c0 17.696 14.304 32 32 32s32-14.304 32-32v-352c0-17.696-14.304-32-32-32zM928 672H768v64c0 52.928-42.72 96-95.264 96H352c-52.928 0-96-43.072-96-96v-64H96c-17.696 0-32-14.304-32-32s14.304-32 32-32h832c17.696 0 32 14.304 32 32s-14.304 32-32 32z m-608 64c0 17.632 14.368 32 32 32h320.736C690.272 768 704 753.952 704 736v-64H320v64zM736.128-64H288.064c-52.928 0-96 43.072-96 96V512.48c0 17.664 14.336 32 32 32s32-14.336 32-32V32c0-17.664 14.368-32 32-32h448.064c17.664 0 32 14.336 32 32V511.168c0 17.664 14.304 32 32 32s32-14.336 32-32V32c0-52.928-43.072-96-96-96z"  horiz-adv-x="1024" />

    
    <glyph glyph-name="community" unicode="&#58920;" d="M704 163.2c51.2 0 96 41.6 96 96V672c0 51.2-41.6 96-96 96H156.8c-51.2 0-96-41.6-96-96v-412.8c0-51.2 41.6-96 96-96H192v-160c0-12.8 9.6-25.6 22.4-32h9.6c9.6 0 19.2 3.2 25.6 12.8l131.2 179.2H704zM233.6 224c-3.2 3.2-9.6 3.2-12.8 3.2h-64c-16 0-32 12.8-32 32V672c0 16 12.8 32 32 32H704c16 0 32-12.8 32-32v-412.8c0-16-12.8-32-32-32H355.2c-3.2-3.2-3.2-3.2-6.4-3.2s-3.2-3.2-6.4-3.2l-3.2-3.2s-3.2 0-3.2-3.2l-80-115.2V192c0 16-9.6 25.6-22.4 32zM864 643.2c-19.2 0-32-12.8-32-32s16-32 32-32 32-12.8 32-32v-348.8c0-19.2-16-25.6-32-25.6h-32c-19.2 0-32-12.8-32-32v-3.2c0-3.2-3.2-6.4-3.2-9.6v-60.8l-73.6 57.6c-3.2 3.2-9.6 3.2-16 3.2H544c-19.2 0-32-12.8-32-32s12.8-32 32-32h153.6l115.2-89.6c6.4-3.2 12.8-6.4 19.2-6.4 3.2 0 9.6 0 12.8 3.2 9.6 6.4 19.2 16 19.2 28.8V108.8c54.4 0 96 38.4 96 89.6V547.2c0 51.2-44.8 96-96 96z"  horiz-adv-x="1024" />

    
    <glyph glyph-name="copy" unicode="&#58921;" d="M672 64H224c-52.928 0-96 43.072-96 96V736c0 52.928 43.072 96 96 96h448c52.928 0 96-43.072 96-96v-576c0-52.928-43.072-96-96-96zM224 768c-17.632 0-32-14.368-32-32v-576c0-17.664 14.368-32 32-32h448c17.664 0 32 14.336 32 32V736c0 17.632-14.336 32-32 32H224zM800-64H320c-17.664 0-32 14.304-32 32s14.336 32 32 32h480c17.664 0 32 14.336 32 32V640c0 17.664 14.304 32 32 32s32-14.336 32-32v-608c0-52.928-43.072-96-96-96zM544 576H288c-17.664 0-32 14.336-32 32s14.336 32 32 32h256c17.696 0 32-14.336 32-32s-14.304-32-32-32zM608 416H288.032c-17.664 0-32 14.336-32 32s14.336 32 32 32H608c17.696 0 32-14.336 32-32s-14.304-32-32-32zM608 256H288c-17.664 0-32 14.304-32 32s14.336 32 32 32h320c17.696 0 32-14.304 32-32s-14.304-32-32-32z"  horiz-adv-x="1024" />

    
    <glyph glyph-name="filter" unicode="&#58923;" d="M608.256-64c-17.696 0-32 14.304-32 32V448a31.912 31.912 0 0 0 8.256 21.44l208.8 234.496h-562.88L439.648 469.28a32.03 32.03 0 0 0 8.096-21.312V159.2l50.848-41.152c13.76-11.136 15.872-31.264 4.736-44.992s-31.264-15.84-44.992-4.736l-62.72 50.752c-7.52 6.048-11.872 15.232-11.872 24.864V435.808L135.136 714.656c-8.384 9.408-10.464 22.88-5.312 34.4 5.152 11.488 16.608 18.912 29.216 18.912h706.336c12.672 0 24.128-7.456 29.248-19.008s2.976-25.056-5.504-34.432L640.256 435.712V-32c0-17.696-14.304-32-32-32z"  horiz-adv-x="1024" />

    
    <glyph glyph-name="fold" unicode="&#58924;" d="M887.328 278.848L533.952 628.992c-0.512 0.512-1.216 0.672-1.76 1.152-0.128 0.128-0.16 0.32-0.288 0.448-12.576 12.416-32.832 12.352-45.28-0.192L136.512 277.056c-12.448-12.576-12.352-32.8 0.192-45.248a31.972 31.972 0 0 1 22.528-9.28c8.224 0 16.48 3.168 22.72 9.472l327.84 330.816 332.48-329.408a31.917 31.917 0 0 1 22.528-9.28c8.256 0 16.48 3.168 22.72 9.472 12.448 12.544 12.352 32.8-0.192 45.248z"  horiz-adv-x="1024" />

    
    <glyph glyph-name="favor_fill" unicode="&#58926;" d="M957.216 491.68c-3.808 11.36-13.632 19.68-25.504 21.504l-270.336 41.728-120.8 258.624C535.328 824.768 524.032 831.968 511.648 832h-0.064a31.968 31.968 0 0 1-28.928-18.336L360.8 555.648l-270.72-40.8a32.014 32.014 0 0 1-25.568-21.408c-3.84-11.36-0.992-23.936 7.36-32.512l196.448-202.08-46.88-284.8a31.997 31.997 0 0 1 13.12-31.328c9.984-7.072 23.168-7.808 33.888-1.92l241.824 133.024 241.312-133.856a32.547 32.547 0 0 1 15.52-3.968h0.64c17.696 0 32 14.304 32 32 0 3.968-0.704 7.776-2.016 11.296l-44.896 278.688L949.76 459.232c8.32 8.544 11.232 21.088 7.456 32.448z"  horiz-adv-x="1024" />

    
    <glyph glyph-name="down" unicode="&#58927;" d="M792.832 410.144c-12.512 12.544-32.8 12.48-45.248 0.032L544 207.008V768c0 17.664-14.336 32-32 32s-32-14.336-32-32v-563.04L245.952 440.416c-12.48 12.576-32.704 12.64-45.248 0.128-12.544-12.448-12.608-32.704-0.128-45.248l287.52-289.248c3.168-3.2 6.88-5.536 10.816-7.136 4-1.792 8.384-2.912 13.088-2.912 11.296 0 20.704 6.176 26.4 14.976l254.368 253.952c12.544 12.448 12.544 32.704 0.064 45.216zM864-32H160c-17.664 0-32 14.304-32 32s14.336 32 32 32h704c17.696 0 32-14.304 32-32s-14.304-32-32-32z"  horiz-adv-x="1024" />

    
    <glyph glyph-name="forward_fill" unicode="&#58929;" d="M951.52 402.048l-384 419.424c-8.96 9.696-22.944 12.928-35.2 8.096-12.256-4.8-20.32-16.64-20.32-29.792V574.88c-149.28-9.44-272.768-85.664-358.592-221.824-68-107.936-88.064-214.688-88.896-219.2-2.464-13.408 3.904-26.912 15.776-33.6 11.872-6.72 26.72-5.152 36.96 3.904 1.6 1.472 156.992 136.576 394.752 148v-283.904a32.012 32.012 0 0 1 20.288-29.792A31.81 31.81 0 0 1 544-63.744c8.704 0 17.248 3.552 23.392 10.176l384 412.096c11.424 12.224 11.488 31.2 0.128 43.52z"  horiz-adv-x="1024" />

    
    <glyph glyph-name="forward" unicode="&#58930;" d="M544-63.744c-3.936 0-7.936 0.704-11.712 2.208A32.012 32.012 0 0 0 512-31.744V255.232c-238.56-11.584-392.896-149.28-394.496-150.72-10.176-9.248-25.056-10.976-37.056-4.288-12 6.656-18.4 20.224-15.936 33.728 0.832 4.512 20.896 111.296 88.896 219.2C245.28 498.944 380.32 575.968 544 575.968c17.696 0 32-14.336 32-32s-14.304-32-32-32c-238.592 0-346.784-188.384-390.56-303.136C233.152 257.664 369.184 320 544 320c17.696 0 32-14.304 32-32v-238.464l308.384 330.912L576 714.688V672c0-17.664-14.304-32-32-32-17.664 0-32 14.336-32 32V796.576a31.96 31.96 0 0 0 20.352 29.792c12.256 4.832 26.208 1.6 35.2-8.096l384-416.224c11.328-12.32 11.296-31.296-0.128-43.52l-384-412.096A32.021 32.021 0 0 0 544-63.744z"  horiz-adv-x="1024" />

    
    <glyph glyph-name="location_fill" unicode="&#58931;" d="M512 832c-194.08 0-352-157.92-352-352 0-187.36 315.424-520.032 328.832-534.08C494.88-60.448 503.264-64 512-64h0.704c8.992 0 17.472 4.192 23.392 10.944l109.216 125.12C790.432 249.824 864 387.072 864 480c0 194.08-157.92 352-352 352z m0-512c-88.384 0-160 71.616-160 160s71.616 160 160 160 160-71.616 160-160-71.616-160-160-160z"  horiz-adv-x="1024" />

    
    <glyph glyph-name="info" unicode="&#58932;" d="M512-62.016C266.08-62.016 65.984 138.048 65.984 384 65.984 629.92 266.08 830.016 512 830.016c245.952 0 446.016-200.064 446.016-446.016 0-245.952-200.064-446.016-446.016-446.016z m0 828.032c-210.656 0-382.016-171.36-382.016-382.016 0-210.624 171.36-382.016 382.016-382.016 210.624 0 382.016 171.36 382.016 382.016S722.624 766.016 512 766.016zM464 592a1.5 1.5 0 1 1 96 0 1.5 1.5 0 1 1-96 0zM512 128c-17.664 0-32 14.304-32 32V448c0 17.664 14.336 32 32 32s32-14.336 32-32v-288c0-17.696-14.336-32-32-32z"  horiz-adv-x="1024" />

    
    <glyph glyph-name="info_fill" unicode="&#58933;" d="M512 830.016C266.048 830.016 65.984 629.952 65.984 384S266.048-62.016 512-62.016 958.016 138.048 958.016 384 757.952 830.016 512 830.016zM544 160c0-17.696-14.304-32-32-32s-32 14.304-32 32V448c0 17.696 14.304 32 32 32s32-14.304 32-32v-288z m-32 384c-26.496 0-48 21.536-48 48 0 26.528 21.504 48 48 48s48-21.472 48-48c0-26.464-21.504-48-48-48z"  horiz-adv-x="1024" />

    
    <glyph glyph-name="more" unicode="&#58934;" d="M224 288c-52.928 0-96 43.072-96 96s43.072 96 96 96 96-43.072 96-96-43.072-96-96-96zM512 288c-52.928 0-96 43.072-96 96s43.072 96 96 96 96-43.072 96-96-43.072-96-96-96zM800 288c-52.928 0-96 43.072-96 96s43.072 96 96 96 96-43.072 96-96-43.072-96-96-96z"  horiz-adv-x="1024" />

    
    <glyph glyph-name="more_android" unicode="&#58935;" d="M417.696 672c0 52.928 43.072 96 96 96s96-43.072 96-96-43.072-96-96-96-96 43.072-96 96zM417.696 384c0 52.928 43.072 96 96 96s96-43.072 96-96-43.072-96-96-96-96 43.072-96 96zM417.696 96c0 52.928 43.072 96 96 96s96-43.072 96-96-43.072-96-96-96-96 43.072-96 96z"  horiz-adv-x="1024" />

    
    <glyph glyph-name="move" unicode="&#58936;" d="M863.744 352h-700.32c-17.664 0-32 14.336-32 32s14.336 32 32 32h700.32c17.696 0 32-14.336 32-32s-14.304-32-32-32z"  horiz-adv-x="1024" />

    
    <glyph glyph-name="music_fill" unicode="&#58937;" d="M895.456 125.44c0.096 0.864 0.544 1.664 0.544 2.56V736c0 1.056-0.512 1.984-0.608 3.008-0.032 1.664 0.448 3.232 0.16 4.928-2.88 17.408-19.328 29.184-36.8 26.304l-480-80c-17.408-2.912-29.216-19.392-26.304-36.832 0.256-1.472 1.024-2.656 1.44-4.032-0.928-3.04-1.888-6.048-1.888-9.376v-429.6c-20.128 9.376-43.648 14.784-69.408 14.784-21.312 0-42.816-3.456-63.968-10.336-39.616-12.8-73.536-36.224-95.584-65.984-24.064-32.512-31.68-70.24-20.864-103.648 15.648-48.288 66.656-79.456 129.92-79.456 21.248 0 42.72 3.456 63.904 10.304 58.656 19.04 100.288 59.2 115.04 103.808 2.848 4.8 4.96 10.112 4.96 16.128v5.312a102.798 102.798 0 0 1 0 25.472V631.552l416 69.344v-490.88c-20.32 9.632-44.096 15.2-70.176 15.2-21.28 0-42.816-3.456-63.968-10.336-39.584-12.8-73.568-36.224-95.584-65.984-24.096-32.512-31.68-70.24-20.864-103.648 15.648-48.288 66.656-79.456 129.92-79.456 21.248 0 42.752 3.456 63.904 10.304 78.24 25.344 126.944 88.224 120.224 149.344z"  horiz-adv-x="1024" />

    
    <glyph glyph-name="lock" unicode="&#58938;" d="M512 128c-17.664 0-32 14.304-32 32v96c0 17.696 14.336 32 32 32s32-14.304 32-32v-96c0-17.696-14.336-32-32-32zM832-64H192c-52.928 0-96 43.072-96 96V384c0 52.928 43.072 96 96 96h640c52.928 0 96-43.072 96-96v-352c0-52.928-43.072-96-96-96zM192 416c-17.632 0-32-14.368-32-32v-352c0-17.664 14.368-32 32-32h640c17.664 0 32 14.336 32 32V384c0 17.632-14.336 32-32 32H192zM736 416c-17.696 0-32 14.336-32 32V577.984C704 686.752 601.76 768 510.336 768 416.768 768 320 697.088 320 578.432V448c0-17.664-14.336-32-32-32s-32 14.336-32 32V578.432C256 737.152 385.312 832 510.336 832 632.224 832 768 727.68 768 577.984V448c0-17.664-14.304-32-32-32z"  horiz-adv-x="1024" />

    
    <glyph glyph-name="full" unicode="&#58939;" d="M639.328 480c8.032 0 16.096 3.008 22.304 9.056L864.256 686.24l-0.8-143.808c-0.096-17.696 14.144-32.096 31.808-32.192h0.192c17.6 0 31.904 14.208 32 31.808l1.248 222.208c0 0.672-0.352 1.248-0.384 1.92 0.032 0.512 0.288 0.896 0.288 1.408 0.032 17.664-14.272 32-31.968 32.032L671.552 800h-0.032c-17.664 0-31.968-14.304-32-31.968-0.032-17.664 14.304-32.032 31.968-32.032l151.872-0.224-206.368-200.8c-12.672-12.32-12.928-32.608-0.64-45.248 6.304-6.464 14.624-9.728 22.976-9.728zM896.032 256.448c-17.696 0-32-14.304-32.032-31.968l-0.224-151.872-200.832 206.4c-12.32 12.64-32.576 12.96-45.248 0.64-12.672-12.352-12.928-32.608-0.64-45.248L814.24 31.776l-143.808 0.8h-0.192c-17.6 0-31.904-14.208-32-31.808-0.096-17.696 14.144-32.096 31.808-32.192l222.24-1.248h0.192c0.64 0 1.12 0.32 1.76 0.352 0.512-0.032 0.896-0.288 1.408-0.288h0.032c17.664 0 31.968 14.304 32 31.968l0.32 225.056c0.032 17.632-14.272 32-31.968 32.032zM209.76 736.256l143.808-0.8h0.192c17.6 0 31.904 14.208 32 31.808 0.096 17.696-14.144 32.096-31.808 32.192L131.68 800.672h-0.192c-0.672 0-1.248-0.352-1.888-0.384-0.448 0-0.8 0.256-1.248 0.256h-0.032c-17.664 0-31.968-14.304-32-31.968L96 543.552c-0.032-17.664 14.272-32 31.968-32.032H128c17.664 0 31.968 14.304 32 31.968l0.224 151.936 200.832-206.4c6.272-6.464 14.624-9.696 22.944-9.696 8.032 0 16.096 3.008 22.304 9.056 12.672 12.32 12.96 32.608 0.64 45.248L209.76 736.256zM362.368 278.944L159.744 81.76l0.8 143.808c0.096 17.696-14.144 32.096-31.808 32.192h-0.192c-17.6 0-31.904-14.208-32-31.808l-1.248-222.24c0-0.704 0.352-1.312 0.384-2.016 0-0.448-0.256-0.832-0.256-1.312-0.032-17.664 14.272-32 31.968-32.032l225.056-0.352h0.032c17.664 0 31.968 14.304 32 31.968s-14.272 32-31.968 32.032l-151.936 0.224 206.4 200.832c12.672 12.352 12.96 32.608 0.64 45.248s-32.608 12.992-45.248 0.64z"  horiz-adv-x="1024" />

    
    <glyph glyph-name="notification_forbid_fill" unicode="&#58941;" d="M192 576c-54.4 0-96-41.6-96-92.8V288c0-54.4 41.6-96 96-96h83.2l182.4-188.8c22.4-22.4 44.8-35.2 67.2-35.2 6.4 0 12.8 0 19.2 3.2 19.2 9.6 32 28.8 32 51.2v224L233.6 576H192z m758.4-489.6l-57.6 54.4C934.4 214.4 960 297.6 960 384c0 115.2-41.6 227.2-118.4 316.8-12.8 12.8-32 16-44.8 3.2-12.8-12.8-16-32-3.2-44.8 64-76.8 102.4-176 102.4-275.2 0-70.4-19.2-137.6-51.2-195.2L752 278.4c9.6 35.2 16 70.4 16 105.6 0 73.6-22.4 144-67.2 204.8-9.6 16-28.8 19.2-44.8 6.4s-19.2-28.8-6.4-44.8c35.2-48 54.4-108.8 54.4-166.4 0-19.2-3.2-38.4-6.4-54.4L576 444.8V742.4c0 25.6-12.8 44.8-32 51.2-25.6 9.6-57.6 0-86.4-32L352 656 214.4 790.4c-12.8 12.8-32 12.8-44.8 0-12.8-12.8-12.8-32 0-44.8l736-704c6.4-6.4 12.8-9.6 22.4-9.6 9.6 0 16 3.2 22.4 9.6 12.8 12.8 12.8 32 0 44.8z"  horiz-adv-x="1024" />

    
    <glyph glyph-name="notification_fill" unicode="&#58942;" d="M526.432-28.064c-20.96 0-44.16 12.576-68.96 37.344L274.752 192H192c-52.928 0-96 43.072-96 96V480c0 52.928 43.072 96 96 96h82.752l182.624 182.624c24.576 24.576 47.744 37.024 68.864 37.024C549.184 795.648 576 780 576 736v-704c0-44.352-26.72-60.064-49.568-60.064zM687.584 165.632a31.898 31.898 0 0 0-18.656 6.016c-14.336 10.304-17.632 30.304-7.328 44.672l12.672 17.344C707.392 278.56 736 317.376 736 384c0 69.024-25.344 102.528-57.44 144.928-5.664 7.456-11.328 15.008-16.928 22.784-10.304 14.336-7.04 34.336 7.328 44.672 14.368 10.368 34.336 7.04 44.672-7.328 5.248-7.328 10.656-14.464 15.968-21.504C764.224 521.792 800 474.496 800 384c0-87.648-39.392-141.12-74.144-188.32l-12.224-16.736c-6.272-8.704-16.064-13.312-26.048-13.312zM796.448 56.992a31.906 31.906 0 0 0-21.088 7.936c-13.28 11.648-14.624 31.872-2.976 45.152C836.608 183.328 896 267.136 896 384s-59.392 200.704-123.616 273.888c-11.648 13.312-10.304 33.504 2.976 45.184 13.216 11.648 33.44 10.336 45.152-2.944C889.472 621.44 960 522.4 960 384s-70.528-237.472-139.488-316.096c-6.368-7.232-15.2-10.912-24.064-10.912z"  horiz-adv-x="1024" />

    
    <glyph glyph-name="order" unicode="&#58943;" d="M332.256 733.568a31.87 31.87 0 0 1-34.88-6.944l-192-192c-12.512-12.512-12.512-32.736 0-45.248s32.736-12.512 45.248 0L288 626.752V96c0-17.696 14.336-32 32-32s32 14.304 32 32V704c0 12.928-7.808 24.608-19.744 29.568zM918.624 278.624c-12.512 12.512-32.736 12.512-45.248 0L768 173.248V704c0 17.664-14.304 32-32 32s-32-14.336-32-32v-608c0-12.928 7.776-24.64 19.744-29.568C727.712 64.768 731.872 64 736 64a32.01 32.01 0 0 1 22.624 9.376l160 160c12.512 12.512 12.512 32.736 0 45.248z"  horiz-adv-x="1024" />

    
    <glyph glyph-name="music_forbid_fill" unicode="&#58944;" d="M616.576 165.024c-5.056-5.216-10.08-10.432-14.304-16.16-24.096-32.512-31.68-70.24-20.864-103.648 15.648-48.288 66.656-79.456 129.92-79.456 21.248 0 42.752 3.456 63.904 10.304 9.632 3.136 18.784 6.816 27.424 11.008l-186.08 177.952zM416 622.592v8.96l416 69.312v-476.192l64-61.216V736c0 1.056-0.512 1.984-0.608 3.008-0.032 1.664 0.448 3.232 0.16 4.896-2.88 17.44-19.424 29.408-36.8 26.304l-480-80c-8.512-1.408-15.552-6.144-20.352-12.544l57.6-55.072zM352 418.08V210.4c-20.128 9.376-43.648 14.784-69.408 14.784-21.28 0-42.816-3.456-63.968-10.336-39.584-12.8-73.568-36.224-95.584-65.984-24.096-32.512-31.68-70.24-20.864-103.648 15.648-48.288 66.656-79.456 129.92-79.456 21.248 0 42.752 3.456 63.904 10.304 58.656 19.04 100.32 59.2 115.04 103.808 2.88 4.8 4.96 10.112 4.96 16.128v5.216a103.83 103.83 0 0 1 0 25.6V356.864l-64 61.216zM928-32a31.904 31.904 0 0 0-22.112 8.864l-736 704c-12.768 12.224-13.216 32.48-1.024 45.248 12.192 12.736 32.48 13.216 45.248 0.992l736-704c12.736-12.224 13.216-32.48 0.992-45.248A31.943 31.943 0 0 0 928-32z"  horiz-adv-x="1024" />

    
    <glyph glyph-name="play_fill" unicode="&#58945;" d="M817.088 411.04l-512 323.744c-9.856 6.24-22.336 6.624-32.512 0.992A31.993 31.993 0 0 1 256 707.744v-647.328c0-11.648 6.336-22.4 16.576-28.032A31.82 31.82 0 0 1 288 28.416a32.107 32.107 0 0 1 17.088 4.928l512 323.616A31.976 31.976 0 0 1 832 384a31.976 31.976 0 0 1-14.912 27.04z"  horiz-adv-x="1024" />

    
    <glyph glyph-name="notification" unicode="&#58946;" d="M526.432-28.064c-20.96 0-44.16 12.576-68.96 37.344L274.752 192H192c-52.928 0-96 43.072-96 96V480c0 52.928 43.072 96 96 96h82.752l182.624 182.624c24.576 24.576 47.744 37.024 68.864 37.024C549.184 795.648 576 780 576 736v-704c0-44.352-26.72-60.064-49.568-60.064zM192 512c-17.632 0-32-14.368-32-32v-192c0-17.664 14.368-32 32-32h96c8.48 0 16.64-3.36 22.624-9.376l192.064-192.096c3.392-3.36 6.496-6.208 9.312-8.576V721.984a145.824 145.824 0 0 1-9.376-8.608l-192-192C304.64 515.36 296.48 512 288 512h-96zM687.584 165.632a31.898 31.898 0 0 0-18.656 6.016c-14.336 10.304-17.632 30.304-7.328 44.672l12.672 17.344C707.392 278.56 736 317.376 736 384c0 69.024-25.344 102.528-57.44 144.928-5.664 7.456-11.328 15.008-16.928 22.784-10.304 14.336-7.04 34.336 7.328 44.672 14.368 10.368 34.336 7.04 44.672-7.328 5.248-7.328 10.656-14.464 15.968-21.504C764.224 521.792 800 474.496 800 384c0-87.648-39.392-141.12-74.144-188.32l-12.224-16.736c-6.272-8.704-16.064-13.312-26.048-13.312zM796.448 56.992a31.906 31.906 0 0 0-21.088 7.936c-13.28 11.648-14.624 31.872-2.976 45.152C836.608 183.328 896 267.136 896 384s-59.392 200.704-123.616 273.888c-11.648 13.312-10.304 33.504 2.976 45.184 13.216 11.648 33.44 10.336 45.152-2.944C889.472 621.44 960 522.4 960 384s-70.528-237.472-139.488-316.096c-6.368-7.232-15.2-10.912-24.064-10.912z"  horiz-adv-x="1024" />

    
    <glyph glyph-name="question" unicode="&#58947;" d="M464 111.648a1.5 1.5 0 1 1 96 0 1.5 1.5 0 1 1-96 0zM512-64C264.96-64 64 136.96 64 384S264.96 832 512 832s448-200.96 448-448-200.96-448-448-448z m0 831.712c-211.584 0-383.712-172.128-383.712-383.712 0-211.552 172.128-383.712 383.712-383.712 211.552 0 383.712 172.16 383.712 383.712 0 211.584-172.16 383.712-383.712 383.712zM512 222.304c-17.664 0-32 14.336-32 32v54.112c0 52.352 40 92.352 75.328 127.648C581.216 461.984 608 488.736 608 510.08c0 53.344-43.072 96.736-96 96.736-53.824 0-96-41.536-96-94.56 0-17.664-14.336-32-32-32s-32 14.336-32 32c0 87.424 71.776 158.56 160 158.56S672 598.72 672 510.08c0-47.904-36.32-84.192-71.424-119.296C572.736 363.008 544 334.272 544 308.448v-54.112c0-17.664-14.336-32.032-32-32.032z"  horiz-adv-x="1024" />

    
    <glyph glyph-name="pull_up" unicode="&#58948;" d="M512-64C264.96-64 64 136.96 64 384S264.96 832 512 832s448-200.96 448-448-200.96-448-448-448z m0 832c-211.744 0-384-172.256-384-384s172.256-384 384-384 384 172.256 384 384-172.256 384-384 384zM694.464 437.632L535.968 597.888c-9.344 9.472-23.168 11.84-34.784 7.136-0.736-0.288-1.312-0.992-2.016-1.344-2.976-1.472-5.952-3.072-8.448-5.536-0.032-0.032-0.032-0.064-0.064-0.096s-0.064-0.032-0.096-0.064L331.2 439.072c-12.512-12.48-12.544-32.736-0.064-45.248 6.24-6.272 14.464-9.408 22.656-9.408 8.16 0 16.352 3.104 22.592 9.344L480 497.056V192c0-17.696 14.336-32 32-32s32 14.304 32 32V498.752L648.96 392.64c6.24-6.336 14.496-9.504 22.752-9.504 8.128 0 16.256 3.072 22.496 9.248 12.576 12.416 12.704 32.672 0.256 45.248z"  horiz-adv-x="1024" />

    
    <glyph glyph-name="pull_down" unicode="&#58949;" d="M512-64C264.96-64 64 136.96 64 384S264.96 832 512 832s448-200.96 448-448-200.96-448-448-448z m0 832c-211.744 0-384-172.256-384-384s172.256-384 384-384 384 172.256 384 384-172.256 384-384 384zM694.56 373.856c-12.544 12.608-33.376 12.64-45.952 0.064L544 270.016V576.672c0 17.76-14.208 32.16-32 32.16-17.76 0-32-14.4-32-32.16v-308.32L374.784 375.04c-12.48 12.608-32.704 12.736-45.312 0.256-12.64-12.512-12.672-32.896-0.192-45.504l159.36-161.056a32.187 32.187 0 0 1 22.88-9.568c8.16 0 16.384 3.168 22.624 9.312l0.064 0.128c0.032 0 0.064 0 0.096 0.064l160.192 159.68c12.576 12.544 12.608 32.928 0.064 45.504z"  horiz-adv-x="1024" />

    
    <glyph glyph-name="question_fill" unicode="&#58950;" d="M512 832C264.96 832 64 631.04 64 384s200.96-448 448-448 448 200.96 448 448S759.04 832 512 832z m0-768.352c-26.496 0-48 21.504-48 48s21.504 48 48 48 48-21.504 48-48-21.504-48-48-48z m88.576 327.168C572.736 363.008 544 334.272 544 308.448v-54.112c0-17.664-14.336-32-32-32s-32 14.336-32 32v54.112c0 52.352 40 92.352 75.328 127.648C581.216 461.984 608 488.736 608 510.08c0 53.344-43.072 96.736-96 96.736-53.824 0-96-41.536-96-94.56 0-17.664-14.336-32-32-32s-32 14.336-32 32c0 87.424 71.776 158.56 160 158.56S672 598.72 672 510.08c0-47.872-36.32-84.16-71.424-119.264z"  horiz-adv-x="1024" />

    
    <glyph glyph-name="recharge_fill" unicode="&#58951;" d="M512 832C264.96 832 64 631.04 64 384s200.96-448 448-448 448 200.96 448 448S759.04 832 512 832z m128.768-512c17.696 0 32-14.304 32-32s-14.304-32-32-32H544v-95.136c0-17.696-14.304-32-32-32s-32 14.304-32 32V256h-95.104c-17.696 0-32 14.304-32 32s14.304 32 32 32H480v64h-95.104c-17.696 0-32 14.304-32 32s14.304 32 32 32H480v19.776L361.568 586.4c-12.544 12.48-12.064 32.736 0.416 45.248 12.512 12.576 32.704 12.512 45.216 0.064l107.584-107.36 101.632 106.784c12.288 12.832 32.416 13.216 45.152 1.12 12.8-12.192 13.056-32.48 0.864-45.248L544 463.136V448h96.768c17.696 0 32-14.304 32-32s-14.304-32-32-32H544v-64h96.768z"  horiz-adv-x="1024" />

    
    <glyph glyph-name="right" unicode="&#58952;" d="M761.056 363.872c0.512 0.992 1.344 1.824 1.792 2.848 8.8 18.304 5.92 40.704-9.664 55.424L399.936 756.256c-19.264 18.208-49.632 17.344-67.872-1.888-18.208-19.264-17.376-49.632 1.888-67.872l316.96-299.84L335.2 82.368c-19.072-18.4-19.648-48.768-1.248-67.872 9.408-9.792 21.984-14.688 34.56-14.688 12 0 24 4.48 33.312 13.44l350.048 337.376c0.672 0.672 0.928 1.6 1.6 2.304 0.512 0.48 1.056 0.832 1.568 1.344 2.72 2.848 4.16 6.336 6.016 9.6z"  horiz-adv-x="1024" />

    
    <glyph glyph-name="round" unicode="&#58953;" d="M512-64C264.96-64 64 136.96 64 384S264.96 832 512 832s448-200.96 448-448-200.96-448-448-448z m0 832c-211.744 0-384-172.256-384-384s172.256-384 384-384 384 172.256 384 384-172.256 384-384 384z"  horiz-adv-x="1024" />

    
    <glyph glyph-name="recharge" unicode="&#58954;" d="M512 832C264.96 832 64 631.04 64 384s200.96-448 448-448 448 200.96 448 448S759.04 832 512 832z m0-832c-211.744 0-384 172.256-384 384s172.256 384 384 384 384-172.256 384-384-172.256-384-384-384zM641.088 384c17.696 0 32 14.336 32 32s-14.304 32-32 32H544v15.136l118.592 123.872c12.192 12.8 12 33.056-0.8 45.248-12.736 12.16-32.832 11.712-45.088-1.12l-101.6-106.784-107.584 107.36c-12.544 12.512-32.768 12.448-45.248-0.064-12.48-12.512-13.088-32.768-0.576-45.248L480 467.776V448h-94.784c-17.664 0-32-14.336-32-32s14.336-32 32-32H480v-64h-94.784c-17.664 0-32-14.304-32-32s14.336-32 32-32H480v-95.136c0-17.696 14.336-32 32-32s32 14.304 32 32V256h97.088c17.696 0 32 14.304 32 32s-14.304 32-32 32H544v64h97.088z"  horiz-adv-x="1024" />

    
    <glyph glyph-name="repeal" unicode="&#58955;" d="M570.016 800h-6.208C406.592 800 288 687.52 288 538.368V109.28L183.04 215.392c-12.416 12.576-32.672 12.672-45.248 0.256-12.576-12.448-12.672-32.672-0.256-45.248l158.496-160.256c6.24-6.336 14.496-9.504 22.752-9.504 8.128 0 16.256 3.104 22.496 9.248 0.032 0.032 0.032 0.064 0.064 0.096s0.064 0.032 0.096 0.064L500.8 168.96c12.512 12.48 12.544 32.736 0.064 45.248-12.48 12.576-32.736 12.512-45.248 0.064L352 110.976V538.368C352 651.04 443.072 736 563.808 736h6.208C686.592 736 768 654.72 768 538.368V32c0-17.696 14.304-32 32-32s32 14.304 32 32V538.368C832 689.984 721.824 800 570.016 800z"  horiz-adv-x="1024" />

    
    <glyph glyph-name="round_add" unicode="&#58956;" d="M512-62.016c-119.648 0-232.128 46.368-316.736 130.56C110.624 152.8 64 264.8 64 384c0 119.168 46.624 231.2 131.232 315.424 84.608 84.192 197.088 130.56 316.736 130.56s232.128-46.368 316.704-130.56c84.672-84.224 131.264-196.256 131.264-315.392 0.032-119.2-46.592-231.232-131.264-315.456C744.128-15.616 631.648-62.016 512-62.016z m0 828.032c-102.624 0-199.072-39.744-271.584-111.936C167.936 581.952 128 486.016 128 384c0-102.016 39.904-197.952 112.384-270.048 72.512-72.192 168.96-111.936 271.584-111.936 102.592 0 199.072 39.744 271.584 111.936 72.48 72.16 112.416 168.064 112.384 270.08 0 102.016-39.904 197.92-112.384 270.016C711.072 726.24 614.592 766.016 512 766.016zM736 416H544V608c0 17.664-14.336 32-32 32s-32-14.336-32-32v-192H288c-17.664 0-32-14.336-32-32s14.336-32 32-32h192v-192c0-17.696 14.336-32 32-32s32 14.304 32 32V352h192c17.696 0 32 14.336 32 32s-14.304 32-32 32z"  horiz-adv-x="1024" />

    
    <glyph glyph-name="round_add_fill" unicode="&#58957;" d="M828.704 699.424C744.096 783.616 631.648 829.984 512 829.984s-232.128-46.368-316.736-130.56C110.624 615.2 64 503.168 64 384c0-119.2 46.624-231.2 131.232-315.424 84.608-84.192 197.088-130.56 316.736-130.56s232.128 46.368 316.704 130.56c84.672 84.256 131.296 196.288 131.264 315.456 0.032 119.168-46.56 231.168-131.232 315.392zM736 352H544v-192c0-17.696-14.336-32-32-32s-32 14.304-32 32V352H288c-17.664 0-32 14.336-32 32s14.336 32 32 32h192V608c0 17.664 14.336 32 32 32s32-14.336 32-32v-192h192c17.696 0 32-14.336 32-32s-14.304-32-32-32z"  horiz-adv-x="1024" />

    
    <glyph glyph-name="round_check" unicode="&#58958;" d="M512-64C264.96-64 64 136.96 64 384S264.96 832 512 832s448-200.96 448-448-200.96-448-448-448z m0 831.712c-211.584 0-383.712-172.128-383.712-383.712 0-211.552 172.128-383.712 383.712-383.712 211.552 0 383.712 172.16 383.712 383.712 0 211.584-172.16 383.712-383.712 383.712zM726.976 502.816c-12.544 12.448-32.832 12.32-45.248-0.256l-233.28-235.84-103.264 106.112c-12.352 12.704-32.608 12.928-45.248 0.64-12.672-12.32-12.96-32.608-0.64-45.248L425.312 198.72c0.064-0.096 0.192-0.096 0.256-0.192 0.064-0.064 0.096-0.192 0.16-0.256 2.016-1.984 4.512-3.2 6.88-4.544 1.248-0.672 2.24-1.792 3.52-2.304 3.872-1.6 8-2.4 12.096-2.4 4.064 0 8.128 0.8 11.968 2.336 1.248 0.512 2.208 1.536 3.392 2.176 2.4 1.344 4.896 2.528 6.944 4.544 0.064 0.064 0.096 0.192 0.192 0.256 0.064 0.096 0.16 0.128 0.256 0.192L727.2 457.536c12.448 12.608 12.32 32.864-0.224 45.28z"  horiz-adv-x="1024" />

    
    <glyph glyph-name="round_close" unicode="&#58959;" d="M512-64C264.96-64 64 136.96 64 384S264.96 832 512 832s448-200.96 448-448-200.96-448-448-448z m0 831.712c-211.584 0-383.712-172.128-383.712-383.712 0-211.552 172.128-383.712 383.712-383.712 211.552 0 383.712 172.16 383.712 383.712 0 211.584-172.16 383.712-383.712 383.712zM557.056 382.624l138.368 136.864c12.576 12.416 12.672 32.672 0.256 45.248s-32.704 12.672-45.248 0.256l-138.56-137.024-136.448 136.864c-12.512 12.512-32.736 12.576-45.248 0.064-12.512-12.48-12.544-32.736-0.064-45.248l136.256-136.672-137.376-135.904c-12.576-12.448-12.672-32.672-0.256-45.248a31.884 31.884 0 0 1 22.752-9.504c8.128 0 16.256 3.104 22.496 9.248l137.568 136.064L650.24 198.496c6.24-6.272 14.432-9.408 22.656-9.408a31.94 31.94 0 0 1 22.592 9.344c12.512 12.48 12.544 32.704 0.064 45.248L557.056 382.624z"  horiz-adv-x="1024" />

    
    <glyph glyph-name="round_close_fill" unicode="&#58960;" d="M512 832C264.992 832 64 631.04 64 384s200.96-448 448-448c247.008 0 448 200.96 448 448S759.04 832 512 832z m182.752-585.984c12.48-12.544 12.448-32.768-0.064-45.248a31.94 31.94 0 0 0-22.592-9.344c-8.224 0-16.416 3.136-22.656 9.408l-137.6 138.016-138.048-136.576c-6.24-6.144-14.368-9.248-22.496-9.248a31.884 31.884 0 0 0-22.752 9.504c-12.416 12.576-12.32 32.8 0.256 45.248L466.688 384.16 329.312 521.984c-12.48 12.512-12.448 32.768 0.064 45.248 12.512 12.512 32.736 12.448 45.248-0.064l137.568-137.984L650.24 565.76c12.544 12.448 32.832 12.32 45.248-0.256 12.448-12.576 12.32-32.832-0.256-45.248L557.344 383.872l137.408-137.856z"  horiz-adv-x="1024" />

    
    <glyph glyph-name="round_check_fill" unicode="&#58961;" d="M512 830.016C266.08 830.016 65.984 629.92 65.984 384c0-245.952 200.064-446.016 446.016-446.016 245.952 0 446.016 200.064 446.016 446.016 0 245.92-200.064 446.016-446.016 446.016z m215.232-372.448L471.008 198.56c-0.064-0.064-0.192-0.096-0.256-0.192-0.096-0.064-0.096-0.192-0.192-0.256-2.048-1.984-4.576-3.2-6.944-4.544-1.184-0.672-2.144-1.696-3.392-2.176-3.84-1.536-7.904-2.336-11.968-2.336-4.096 0-8.224 0.8-12.096 2.4-1.28 0.544-2.304 1.632-3.52 2.304-2.368 1.344-4.832 2.528-6.88 4.544-0.064 0.064-0.096 0.192-0.16 0.256-0.064 0.096-0.192 0.096-0.256 0.192L299.328 328.256c-12.32 12.672-12.032 32.928 0.64 45.248 12.672 12.288 32.896 12.064 45.248-0.64L448.48 266.752l233.28 235.84c12.416 12.576 32.704 12.704 45.248 0.256 12.512-12.448 12.64-32.704 0.224-45.28z"  horiz-adv-x="1024" />

    
    <glyph glyph-name="round_right" unicode="&#58963;" d="M512-64C264.96-64 64 136.96 64 384S264.96 832 512 832s448-200.96 448-448-200.96-448-448-448z m0 832c-211.744 0-384-172.256-384-384s172.256-384 384-384 384 172.256 384 384-172.256 384-384 384zM668.832 394.848c-0.032 0.128-0.192 0.256-0.256 0.384-1.536 3.616-3.648 7.072-6.592 10.048-0.032 0.032-0.064 0.032-0.096 0.064s-0.032 0.064-0.064 0.096L502.912 564.8c-12.48 12.512-32.736 12.576-45.248 0.064-12.512-12.48-12.544-32.736-0.064-45.248l136.288-136.672L456.48 247.04c-12.576-12.448-12.672-32.672-0.256-45.248 6.24-6.336 14.496-9.504 22.752-9.504 8.128 0 16.256 3.104 22.496 9.248l160.256 158.496c9.504 9.376 11.872 23.2 7.104 34.816z"  horiz-adv-x="1024" />

    
    <glyph glyph-name="scan" unicode="&#58964;" d="M928 352H96c-17.664 0-32 14.336-32 32s14.336 32 32 32h832c17.696 0 32-14.336 32-32s-14.304-32-32-32zM832-32H640c-17.696 0-32 14.304-32 32s14.304 32 32 32h192c17.664 0 32 14.336 32 32V224c0 17.696 14.304 32 32 32s32-14.304 32-32v-160c0-52.928-43.072-96-96-96zM352-32H192c-52.928 0-96 43.072-96 96V224c0 17.696 14.336 32 32 32s32-14.304 32-32v-160c0-17.664 14.368-32 32-32h160c17.664 0 32-14.304 32-32s-14.336-32-32-32zM128 512c-17.664 0-32 14.336-32 32V704c0 52.928 43.072 96 96 96h160c17.664 0 32-14.336 32-32s-14.336-32-32-32H192c-17.632 0-32-14.368-32-32v-160c0-17.664-14.336-32-32-32zM896 512c-17.696 0-32 14.336-32 32V704c0 17.632-14.336 32-32 32H640c-17.696 0-32 14.336-32 32s14.304 32 32 32h192c52.928 0 96-43.072 96-96v-160c0-17.664-14.304-32-32-32z"  horiz-adv-x="1024" />

    
    <glyph glyph-name="round_right_fill" unicode="&#58965;" d="M512 832C264.96 832 64 631.04 64 384s200.96-448 448-448 448 200.96 448 448S759.04 832 512 832z m149.76-471.968L501.504 201.536c-6.24-6.144-14.368-9.248-22.496-9.248-8.256 0-16.512 3.168-22.752 9.504-12.416 12.576-12.32 32.8 0.256 45.248L593.92 382.944 457.632 519.616c-12.48 12.512-12.448 32.768 0.064 45.248 12.512 12.512 32.768 12.448 45.248-0.064l158.912-159.36c0.032-0.032 0.032-0.064 0.064-0.096s0.064-0.032 0.096-0.064c2.944-2.976 5.056-6.432 6.592-10.048 0.064-0.128 0.224-0.256 0.256-0.384 4.736-11.616 2.368-25.44-7.104-34.816z"  horiz-adv-x="1024" />

    
    <glyph glyph-name="search_light" unicode="&#58966;" d="M955.733-27.733L806.4 125.867c70.4 76.8 110.933 177.066 110.933 279.466 0 224-181.333 405.334-405.333 405.334S106.667 629.333 106.667 405.333 288 0 512 0c64 0 125.867 14.933 183.467 42.667 10.666 4.266 14.933 17.066 8.533 27.733-4.267 10.667-19.2 14.933-27.733 8.533-51.2-25.6-106.667-38.4-164.267-38.4-200.533 0-362.667 162.134-362.667 362.667S311.467 768 512 768s362.667-162.133 362.667-362.667c0-100.266-42.667-196.266-115.2-264.533-8.534-8.533-8.534-21.333 0-29.867 2.133-2.133 4.266-4.266 8.533-4.266l157.867-162.134c4.266-4.266 10.666-6.4 14.933-6.4 6.4 0 10.667 2.134 14.933 6.4 6.4 6.4 8.534 19.2 0 27.734z"  horiz-adv-x="1024" />

    
    <glyph glyph-name="search_list" unicode="&#58967;" d="M954.4 82.048L816.736 262.336c48.832 46.656 79.456 112.224 79.456 184.928 0 141.152-114.848 256-256 256s-256-114.848-256-256 114.848-256 256-256c45.472 0 88.096 12.032 125.152 32.896l138.144-180.928c6.304-8.256 15.808-12.608 25.472-12.608 6.752 0 13.6 2.112 19.36 6.56 14.112 10.752 16.8 30.848 6.08 44.864zM448.224 447.296c0 105.888 86.112 192 192 192s192-86.112 192-192-86.112-192-192-192-192 86.112-192 192zM320 576H128c-17.664 0-32 14.336-32 32s14.336 32 32 32h192c17.664 0 32-14.336 32-32s-14.336-32-32-32zM256 320H128c-17.664 0-32 14.304-32 32 0 17.664 14.336 32 32 32h128c17.664 0 32-14.336 32-32 0-17.696-14.336-32-32-32zM480 96H128c-17.664 0-32 14.304-32 32s14.336 32 32 32h352c17.664 0 32-14.304 32-32s-14.336-32-32-32z"  horiz-adv-x="1024" />

    
    <glyph glyph-name="square" unicode="&#58968;" d="M832-32H192c-52.928 0-96 43.072-96 96V704c0 52.928 43.072 96 96 96h640c52.928 0 96-43.072 96-96v-640c0-52.928-43.072-96-96-96zM192 736c-17.632 0-32-14.368-32-32v-640c0-17.664 14.368-32 32-32h640c17.664 0 32 14.336 32 32V704c0 17.632-14.336 32-32 32H192z"  horiz-adv-x="1024" />

    
    <glyph glyph-name="sort" unicode="&#58969;" d="M384 576h512c17.696 0 32 14.336 32 32s-14.304 32-32 32H384c-17.664 0-32-14.336-32-32s14.336-32 32-32zM896 416H384c-17.664 0-32-14.336-32-32s14.336-32 32-32h512c17.696 0 32 14.336 32 32s-14.304 32-32 32zM896 192H384c-17.664 0-32-14.304-32-32s14.336-32 32-32h512c17.696 0 32 14.304 32 32s-14.304 32-32 32zM128 608a2 2 0 1 1 128 0 2 2 0 1 1-128 0zM128 384a2 2 0 1 1 128 0 2 2 0 1 1-128 0zM128 160a2 2 0 1 1 128 0 2 2 0 1 1-128 0z"  horiz-adv-x="1024" />

    
    </font>
</defs>
</svg>
